<?xml version="1.0" encoding="UTF-8" standalone="no"?><!DOCTYPE svg PUBLIC "-//W3C//DTD SVG 1.1//EN" "http://www.w3.org/Graphics/SVG/1.1/DTD/svg11.dtd"><svg width="100%" height="100%" viewBox="0 0 200 200" version="1.1" xmlns="http://www.w3.org/2000/svg" xmlns:xlink="http://www.w3.org/1999/xlink" xml:space="preserve" xmlns:serif="http://www.serif.com/" style="fill-rule:evenodd;clip-rule:evenodd;stroke-linejoin:round;stroke-miterlimit:1.41421;"><path d="M85.29,6.001l-11.327,6.604l84.8,49.009l25.929,-15.037l-69.313,-40.276c-4.502,-2.595 -10.033,-3.801 -15.423,-3.801c-5.432,-0.004 -10.719,1.226 -14.666,3.501Zm-40.615,23.619l84.807,49.022l25.847,-15.017l-84.803,-49.033l-25.851,15.028Zm-15.349,8.918c-7.865,4.534 -7.971,11.461 -0.059,16.035l70.815,41.171l25.982,-15.135l-84.788,-49.025l-11.95,6.954Zm235.309,6.107l0.047,27.756l5.823,-0.008l-0.016,-11.197c0.111,-1.762 1.301,-3.067 3.138,-3.071c2.11,-0.004 3.111,1.415 3.111,3.292l0.016,10.964l5.831,-0.012l-0.016,-11.962c-0.012,-4.179 -2.239,-7.585 -7.227,-7.577c-1.683,0.004 -3.674,0.544 -4.865,1.735l-0.015,-9.931l-5.827,0.011Zm-34.62,0.631l0.048,27.184l17.252,-0.032l-0.016,-5.748l-11.188,0.016l-0.012,-5.212l10.124,-0.02l-0.012,-5.326l-10.12,0.015l-0.008,-5.176l11.157,-0.016l-0.012,-5.712l-17.213,0.027Zm23.356,2.527l0.004,2.456c0,1.763 -0.954,3.107 -2.953,3.111l-0.958,0.004l0.008,5.098l3.378,-0.008l0.012,8.165c0.008,3.796 2.425,6.13 6.375,6.122c1.841,0 2.799,-0.425 3.028,-0.54l-0.008,-4.829c-0.343,0.079 -0.918,0.193 -1.533,0.193c-1.266,0.004 -2.11,-0.418 -2.114,-1.991l-0.011,-7.128l3.717,-0.012l-0.008,-5.094l-3.717,0.004l-0.008,-5.555l-5.212,0.004Zm-135.583,42.197c-9.245,5.393 -15.738,15.072 -15.738,25.8l0,13.838l84.586,-49.179l0,-30.491l-68.848,40.032Zm271.382,-37.438c-2.57,0.008 -4.407,0.851 -5.898,3.004c-0.962,-1.877 -2.917,-2.988 -5.641,-2.98c-2.07,0 -4.523,1.076 -5.477,2.767l-0.004,-2.188l-5.558,0.012l0.031,19.054l5.827,-0.012l-0.02,-10.964c0,-1.723 1.112,-3.3 3.139,-3.304c2.109,0 3.071,1.42 3.079,3.221l0.012,11.039l5.752,-0.012l-0.016,-10.999c-0.008,-1.687 1.108,-3.261 3.174,-3.264c2.073,-0.004 3.031,1.411 3.035,3.213l0.016,11.043l5.638,-0.012l-0.024,-12.344c-0.008,-5.169 -3.45,-7.274 -7.045,-7.274c-0.008,0 -0.012,0 -0.02,0Zm-57.888,0.102c-4.947,0.004 -9.505,3.923 -9.493,10.058c0.012,6.402 4.695,10.152 9.947,10.14c4.833,-0.008 7.853,-2.772 8.772,-6.072l-4.873,-1.372c-0.536,1.499 -1.723,2.5 -3.828,2.5c-2.263,0.004 -4.223,-1.526 -4.341,-3.674l13.263,-0.02c0.039,-0.115 0.114,-0.998 0.11,-1.806c-0.008,-6.123 -3.643,-9.754 -9.525,-9.758c-0.012,0 -0.02,0 -0.032,0.004Zm0.083,4.597c2.76,-0.004 3.757,1.755 3.84,3.213l-7.632,0.016c0.118,-1.419 1.336,-3.225 3.792,-3.229Zm-36.16,-4.541c-4.944,0.011 -9.502,3.926 -9.494,10.061c0.012,6.402 4.7,10.152 9.951,10.14c4.826,-0.004 7.853,-2.768 8.764,-6.068l-4.869,-1.375c-0.536,1.498 -1.723,2.495 -3.828,2.499c-2.267,0.004 -4.222,-1.526 -4.337,-3.674l13.263,-0.02c0.039,-0.118 0.114,-0.998 0.11,-1.802c-0.008,-6.13 -3.651,-9.761 -9.541,-9.761c-0.007,0 -0.011,0 -0.019,0Zm0.082,4.6c2.76,-0.007 3.762,1.759 3.844,3.218l-7.632,0.007c0.11,-1.415 1.336,-3.221 3.788,-3.225Zm23.419,-4.253c-1.538,0 -3.95,0.618 -4.944,2.767l-0.004,-2.57l-5.638,0.008l0.036,19.054l5.827,-0.008l-0.012,-8.319c-0.008,-3.797 2.097,-5.18 4.435,-5.184c0.576,0 1.191,0.035 1.841,0.189l-0.007,-5.748l-1.534,-0.189Zm37.304,0.126l0.02,10.853c0,1.916 -1.223,3.261 -3.174,3.261c-2.074,0.004 -3.075,-1.451 -3.079,-3.292l-0.016,-10.81l-5.827,0.011l0.02,12.037c0.004,4.061 2.621,7.431 7.258,7.424c1.92,0 4.1,-0.694 5.094,-2.342c0,0.496 0.082,1.565 0.157,1.912l5.595,-0.008c-0.04,-0.308 -0.19,-1.691 -0.194,-3.414l-0.027,-15.64l-5.827,0.008Zm-342.481,13.865l0,30.125l84.582,49.183l0.004,-47.22l-70.882,-41.199c-2.109,-1.218 -4.069,-1.782 -5.811,-1.782c-4.775,0 -7.893,4.246 -7.893,10.893Zm383.065,20.667c-1.841,0.004 -3.371,1.542 -3.367,3.418c0.004,1.877 1.534,3.41 3.375,3.406c1.92,-0.003 3.45,-1.537 3.446,-3.418c-0.004,-1.872 -1.538,-3.406 -3.446,-3.406c-0.004,0 -0.008,0 -0.008,0Zm-154.049,0.792c-7.59,0.016 -14.016,5.772 -14.004,14.245c0.012,8.476 6.308,14.102 14.13,14.086c8.437,-0.012 12.028,-5.772 12.904,-9.529l-5.796,-1.636c-0.528,1.956 -2.405,5.102 -7.12,5.11c-4.061,0.007 -7.822,-2.938 -7.83,-8.039c-0.012,-5.709 4.085,-8.327 7.728,-8.331c4.794,-0.008 6.524,3.17 6.946,5.047l5.709,-1.81c-0.883,-3.903 -4.491,-9.143 -12.64,-9.143c-0.008,0 -0.015,0 -0.027,0Zm163.487,2.875l0.004,2.456c0,1.762 -0.954,3.102 -2.949,3.106l-0.962,0l0.012,5.102l3.375,-0.004l0.008,8.165c0.012,3.793 2.428,6.131 6.379,6.123c1.841,-0.004 2.795,-0.426 3.024,-0.544l-0.008,-4.83c-0.347,0.079 -0.919,0.193 -1.53,0.197c-1.269,0 -2.109,-0.418 -2.117,-1.991l-0.008,-7.132l3.718,-0.004l-0.008,-5.101l-3.718,0.008l-0.008,-5.563l-5.212,0.012Zm-68.737,5.097c-2.567,0.004 -4.408,0.848 -5.898,3c-0.966,-1.876 -2.918,-2.984 -5.642,-2.98c-2.07,0.004 -4.522,1.08 -5.476,2.771l-0.004,-2.188l-5.563,0.008l0.036,19.054l5.823,-0.011l-0.016,-10.965c0,-1.722 1.112,-3.295 3.138,-3.299c2.109,0 3.071,1.415 3.075,3.217l0.016,11.043l5.752,-0.012l-0.02,-11.004c0,-1.683 1.108,-3.26 3.178,-3.264c2.07,-0.004 3.036,1.411 3.036,3.213l0.016,11.043l5.637,-0.012l-0.019,-12.344c-0.012,-5.164 -3.454,-7.27 -7.049,-7.27c-0.008,0 -0.012,0 -0.02,0Zm44.976,0c-1.96,0.004 -4.294,0.891 -5.326,2.693l-0.004,-2.184l-5.638,0.012l0.031,19.05l5.827,-0.008l-0.019,-10.925c-0.004,-1.92 1.226,-3.339 3.142,-3.343c2.105,-0.004 3.107,1.415 3.107,3.292l0.019,10.964l5.831,-0.008l-0.023,-11.957c-0.004,-4.176 -2.153,-7.586 -6.935,-7.586c-0.004,0 -0.008,0 -0.012,0Zm-79.134,0.059c-2.571,0.004 -4.408,0.852 -5.898,2.997c-0.962,-1.877 -2.921,-2.985 -5.642,-2.981c-2.073,0.004 -4.526,1.084 -5.48,2.768l0,-2.18l-5.563,0.003l0.032,19.059l5.831,-0.008l-0.02,-10.968c-0.004,-1.727 1.104,-3.3 3.138,-3.304c2.11,0 3.068,1.415 3.076,3.217l0.015,11.039l5.752,-0.008l-0.019,-11.004c-0.004,-1.687 1.104,-3.26 3.177,-3.264c2.07,-0.004 3.032,1.415 3.032,3.217l0.02,11.043l5.634,-0.012l-0.02,-12.344c-0.008,-5.164 -3.45,-7.27 -7.049,-7.27c-0.004,0 -0.012,0 -0.016,0Zm-36.078,0.059c-5.673,0.008 -10.108,4.195 -10.104,10.097c0.011,5.906 4.466,10.113 10.14,10.109c5.712,-0.012 10.112,-4.238 10.104,-10.14c-0.012,-5.894 -4.419,-10.066 -10.12,-10.066c-0.008,0 -0.016,0 -0.02,0Zm-4.274,10.089c-0.011,-3.221 2.098,-4.719 4.282,-4.723c2.224,-0.004 4.297,1.49 4.301,4.708c0.004,3.221 -2.062,4.758 -4.281,4.762c-0.004,0 -0.004,0 -0.008,0c-2.188,0 -4.29,-1.569 -4.294,-4.747Zm169.516,-9.789l-4.203,10.203l-4.656,-10.187l-6.517,0.008l8.039,16.475l-4.313,9.896l6.131,-0.012l11.689,-26.391l-6.17,0.008Zm-38.569,0.063l0.035,19.054l5.819,-0.012l-0.027,-19.054l-5.827,0.012Zm-33.007,0.055l0.016,10.85c0,1.916 -1.222,3.265 -3.178,3.265c-2.07,0 -3.071,-1.455 -3.071,-3.296l-0.02,-10.807l-5.827,0.008l0.02,12.037c0.008,4.064 2.622,7.435 7.262,7.427c1.912,-0.004 4.1,-0.698 5.094,-2.346c0,0.497 0.075,1.57 0.154,1.913l5.594,-0.008c-0.039,-0.308 -0.189,-1.688 -0.193,-3.411l-0.028,-15.639l-5.823,0.007Zm-347.173,34.6c0,11.606 6.486,20.493 14.395,25.054l70.168,40.821l0,-47.204l-84.586,-49.178l0.023,30.507Zm88.498,1.947l0,29.51l55.341,-32.183l0,-29.446l-55.341,32.119Zm205.633,-1.324l0.015,10.199c-0.461,-0.725 -1.884,-1.952 -5.145,-1.948c-5.405,0.012 -9.229,4.274 -9.217,9.947c0.012,5.863 4.08,9.998 9.446,9.987c2.299,-0.004 4.215,-0.962 5.094,-2.267c0.004,0.768 0.122,1.608 0.158,1.837l5.598,-0.008c-0.043,-0.422 -0.158,-1.687 -0.162,-3.41l-0.035,-24.345l-5.752,0.008Zm-8.485,18.226c-0.004,-3.182 2.027,-4.719 4.29,-4.723c2.259,-0.004 4.297,1.525 4.301,4.707c0.004,3.146 -2.026,4.759 -4.285,4.763c-0.004,0 -0.008,0 -0.008,0c-2.263,0 -4.29,-1.609 -4.298,-4.747Zm-69.037,-17.521l0.048,27.184l6.091,-0.012l-0.016,-10.16l10.046,-0.015l-0.008,-5.524l-10.085,0.02l-0.008,-5.752l11.461,-0.02l-0.008,-5.748l-17.521,0.027Zm53.074,7.538c-1.955,0.004 -4.289,0.891 -5.322,2.693l-0.004,-2.18l-5.638,0.008l0.032,19.054l5.831,-0.008l-0.024,-10.929c-0.004,-1.916 1.222,-3.339 3.142,-3.339c2.105,-0.004 3.103,1.412 3.107,3.292l0.02,10.96l5.823,-0.008l-0.016,-11.957c-0.008,-4.179 -2.157,-7.586 -6.939,-7.586c-0.004,0 -0.008,0 -0.012,0Zm-21.546,0.537l0.016,10.849c0.004,1.916 -1.218,3.261 -3.173,3.261c-2.07,0.008 -3.072,-1.451 -3.076,-3.288l-0.015,-10.811l-5.827,0.008l0.019,12.041c0.008,4.064 2.622,7.431 7.255,7.423c1.92,-0.003 4.108,-0.693 5.101,-2.345c0,0.496 0.075,1.569 0.15,1.916l5.598,-0.012c-0.039,-0.304 -0.189,-1.684 -0.193,-3.406l-0.028,-15.648l-5.827,0.012Zm-159.639,25.989l0,30.483l26.02,-15.119l0,-30.437l-26.02,15.073Z" style="fill:url(#_Linear1);fill-rule:nonzero;"/><defs><linearGradient id="_Linear1" x1="0" y1="0" x2="1" y2="0" gradientUnits="userSpaceOnUse" gradientTransform="matrix(424.943,-1.68286e-29,-1.68286e-29,424.943,13.5286,100.001)"><stop offset="0" style="stop-color:#2e8eb0;stop-opacity:1"/><stop offset="1" style="stop-color:#112147;stop-opacity:1"/></linearGradient></defs></svg>