<?xml version="1.0" encoding="UTF-8"?>
<svg width="1678px" height="286px" viewBox="0 0 1678 286" version="1.1" xmlns="http://www.w3.org/2000/svg" xmlns:xlink="http://www.w3.org/1999/xlink">
    <!-- Generator: Sketch 52.4 (67378) - http://www.bohemiancoding.com/sketch -->
    <title>logo@1x</title>
    <desc>Created with Sketch.</desc>
    <defs>
        <path d="M180.849583,162.806991 C175.765288,168.042701 170.441508,172.695084 164.886719,176.760076 C159.327692,180.823035 153.346917,184.347383 146.942273,187.329055 C140.53763,190.308694 133.518378,192.564765 125.888756,194.101332 C118.261254,195.635866 109.830522,196.40415 100.596561,196.40415 C86.0939216,196.40415 72.7166518,193.877757 60.4711091,188.818875 C48.2234471,183.75796 37.6288698,176.849506 28.6810192,168.089448 C19.7331685,159.325326 12.7139166,148.983986 7.62962159,137.06543 C2.5432072,125.140776 0,112.315727 0,98.588249 C0,85.0396309 2.49234305,72.3019788 7.48762585,60.38139 C12.4829087,48.4547037 19.4979218,38.0259669 28.5411428,29.0829847 C37.5843637,20.1400025 48.3188174,13.0953715 60.7572199,7.9490917 C73.1892644,2.80077943 86.939538,0.223574555 102.012279,0.223574555 C111.051262,0.223574555 119.293372,0.947143117 126.736492,2.39428024 C134.177492,3.83938487 141.006004,5.86781583 147.224145,8.48973562 C153.442287,11.1075904 159.187816,14.2254392 164.460732,17.8371845 C169.735768,21.4529948 174.726812,25.4265244 179.435984,29.7638708 L157.108744,54.4180468 C149.203608,47.3734158 140.819502,41.6803946 131.962783,37.3491457 C123.110302,33.0138319 113.028605,30.8451587 101.728288,30.8451587 C92.3078245,30.8451587 83.5973399,32.6073327 75.5904759,36.1276157 C67.5836119,39.6519637 60.6618496,44.4384916 54.8209504,50.4871996 C48.9800513,56.5420051 44.4616198,63.631351 41.2550594,71.7572698 C38.0527377,79.8892862 36.4547558,88.6513762 36.4547558,98.0476051 C36.4547558,107.435704 38.0527377,116.246574 41.2550594,124.463955 C44.4616198,132.681336 48.9800513,139.862144 54.8209504,146.004347 C60.6618496,152.150615 67.5836119,156.979825 75.5904759,160.504173 C83.5973399,164.028521 92.3078245,165.78663 101.728288,165.78663 C113.785209,165.78663 124.146659,163.575275 132.808399,159.150531 C141.478616,154.723755 150.049225,148.713664 158.528701,141.126357 L180.849583,162.806991 Z" id="path-1"></path>
        <path d="M40.9290933,52.9343128 C40.9290933,56.7167877 41.5686746,59.9586188 42.8375547,62.6659034 C44.1146608,65.3670906 46.4303155,67.8914505 49.7927448,70.2328859 C53.2024743,72.5783862 57.8399532,74.7409619 63.7483687,76.7226455 C69.7020279,78.7022965 77.2001423,80.7774749 86.335256,82.9420831 C96.3361695,85.4644106 105.249178,88.2590925 112.971454,91.3200315 C120.697844,94.3830029 127.15124,98.1248279 132.243212,102.539409 C137.333128,106.960088 141.240539,112.09214 143.879069,117.949794 C146.515542,123.807447 147.833779,130.701673 147.833779,138.63044 C147.833779,147.644559 146.151536,155.664789 142.834351,162.69316 C139.469865,169.721531 134.834442,175.666581 128.880783,180.532377 C122.972368,185.398172 115.788903,189.09325 107.474345,191.621675 C99.1104308,194.14197 89.9280169,195.40415 79.9271033,195.40415 C65.2023366,195.40415 51.1130381,192.926537 37.6571514,187.969279 C24.2053778,183.014054 11.751022,175.398292 0.298197092,165.126057 L20.4748293,141.33366 C29.7497871,149.266491 39.1111193,155.347719 48.5670519,159.581408 C58.0188715,163.81713 68.7477972,165.934991 80.7476595,165.934991 C91.108466,165.934991 99.3345927,163.77648 105.428096,159.447264 C111.517486,155.124145 114.561153,149.266491 114.561153,141.874303 C114.561153,138.447515 113.972985,135.388609 112.790479,132.681324 C111.61003,129.978105 109.423937,127.502525 106.244539,125.248486 C103.017841,122.998513 98.6538807,120.87862 93.1094713,118.894904 C87.5177617,116.913221 80.2952225,114.842107 71.3822143,112.679531 C61.1571388,110.334031 52.110456,107.726339 44.1557915,104.840195 C36.2484272,101.956083 29.5667558,98.3524675 24.2053778,94.0252836 C18.8419432,89.7001322 14.706258,84.4725526 11.8867531,78.3445772 C9.06930466,72.2186344 7.66058047,64.7370168 7.66058047,55.9058219 C7.66058047,47.6152708 9.29757968,40.0909708 12.5242779,33.3329217 C15.7941632,26.5728402 20.2506674,20.7619342 25.9308078,15.8941064 C31.6171179,11.0283111 38.4304073,7.28851852 46.4303155,4.67676121 C54.38498,2.06297141 63.1108439,0.756076509 72.56472,0.756076509 C86.563531,0.756076509 99.1515614,2.78450748 110.337037,6.83933691 C121.5184,10.8921339 132.019051,16.7945021 141.83282,24.5444092 L123.831998,49.6863842 C115.108191,43.3815818 106.472814,38.5584689 97.9258685,35.2251755 C89.383036,31.8918821 80.7476595,30.2211704 72.0197391,30.2211704 C62.2039134,30.2211704 54.5638983,32.4264285 49.1120328,36.8471073 C43.6560543,41.2616885 40.9290933,46.6234128 40.9290933,52.9343128 Z" id="path-3"></path>
        <polygon id="path-5" points="160.458188 54.5020888 98.0162996 144.880811 96.8824623 144.880811 35.0128109 55.0498136 35.0128109 191.985143 0.546709545 191.985143 0.546709545 0.277335526 37.5549039 0.277335526 97.7333721 90.9288871 157.91184 0.277335526 194.924289 0.277335526 194.924289 191.985143 160.458188 191.985143"></polygon>
        <path d="M175.033457,98.588249 C175.033457,89.3749448 173.342043,80.6555371 169.957036,72.438156 C166.576388,64.2187423 161.835634,57.0359016 155.743493,50.8977638 C149.653531,44.755561 142.349501,39.8796032 133.846659,36.2658254 C125.337278,32.6500151 116.054119,30.8451587 105.995002,30.8451587 C95.942424,30.8451587 86.7050377,32.6073327 78.2937414,36.1276157 C69.8846247,39.6519637 62.6786787,44.4384916 56.6824424,50.4871996 C50.6883857,56.5420051 45.9999435,63.6740334 42.6127566,71.8975121 C39.2321086,80.1148932 37.5385151,88.8302359 37.5385151,98.0476051 C37.5385151,107.256844 39.2321086,115.974219 42.6127566,124.193633 C45.9999435,132.411014 50.7385178,139.591822 56.8284794,145.73809 C62.918441,151.876228 70.2202919,156.752186 78.7296728,160.367996 C87.236874,163.979741 96.5200331,165.78663 106.57915,165.78663 C116.633908,165.78663 125.864755,164.028521 134.280411,160.504173 C142.689527,156.979825 149.895473,152.189232 155.88735,146.140524 C161.887946,140.089784 166.576388,132.955723 169.957036,124.738342 C173.342043,116.516896 175.033457,107.801553 175.033457,98.588249 Z M212.451629,98.0476051 C212.451629,111.413298 209.842579,124.057456 204.620121,135.980077 C199.404202,147.900666 192.054399,158.3355 182.57943,167.274417 C173.100101,176.219432 161.887946,183.308778 148.925526,188.54652 C135.971824,193.78223 121.658017,196.40415 105.995002,196.40415 C90.3298072,196.40415 76.0203591,193.83101 63.0666577,188.682697 C50.1085969,183.534385 38.9858073,176.534469 29.7070076,167.682949 C20.4238485,158.833462 13.1743094,148.445375 7.94967157,136.520721 C2.7293931,124.596067 0.118164032,111.953942 0.118164032,98.588249 C0.118164032,85.2184906 2.7293931,72.5723007 7.94967157,60.6517119 C13.1743094,48.7290906 20.5175737,38.2962889 29.9947223,29.3533066 C39.4718708,20.4103244 50.6883857,13.323011 63.6464464,8.08323643 C76.6045072,2.84549434 90.9117756,0.223574555 106.57915,0.223574555 C122.242165,0.223574555 136.549434,2.80077943 149.505315,7.9490917 C162.465555,13.0953715 173.586165,20.0932551 182.869324,28.9468074 C192.148124,37.7983274 199.404202,48.1884467 204.620121,60.107003 C209.842579,72.0316568 212.451629,84.6778466 212.451629,98.0476051 Z" id="path-7"></path>
        <path d="M41.1655944,52.9343128 C41.1655944,56.7167877 41.8051758,59.9586188 43.0761124,62.6659034 C44.3470489,65.3670906 46.6668166,67.8914505 50.0292459,70.2328859 C53.4389754,72.5783862 58.0764544,74.7409619 63.9848698,76.7226455 C69.938529,78.7022965 77.4366435,80.7774749 86.5738137,82.9420831 C96.5706141,85.4644106 105.481566,88.2590925 113.207955,91.3200315 C120.934345,94.3830029 127.387741,98.1248279 132.477657,102.539409 C137.56963,106.960088 141.47704,112.09214 144.11557,117.949794 C146.749987,123.807447 148.07028,130.701673 148.07028,138.63044 C148.07028,147.644559 146.385981,155.664789 143.070852,162.69316 C139.706366,169.721531 135.070944,175.666581 129.117284,180.532377 C123.208869,185.398172 116.02746,189.09325 107.710846,191.621675 C99.3448754,194.14197 90.164518,195.40415 80.1636045,195.40415 C65.4347247,195.40415 51.3454262,192.926537 37.8936525,187.969279 C24.4398224,183.014054 11.98341,175.398292 0.534698234,165.126057 L20.7113304,141.33366 C29.9883448,149.266491 39.3517335,155.347719 48.8035531,159.581408 C58.2533161,163.81713 68.9822418,165.934991 80.9800476,165.934991 C91.3449672,165.934991 99.5731504,163.77648 105.664597,159.447264 C111.751931,155.124145 114.801767,149.266491 114.801767,141.874303 C114.801767,138.447515 114.209486,135.388609 113.026981,132.681324 C111.846531,129.978105 109.660438,127.502525 106.483097,125.248486 C103.254342,122.998513 98.8883253,120.87862 93.3459725,118.894904 C87.7542629,116.913221 80.5276106,114.842107 71.6207719,112.679531 C61.3956965,110.334031 52.3469571,107.726339 44.3964057,104.840195 C36.4849284,101.956083 29.803257,98.3524675 24.4398224,94.0252836 C19.0784443,89.7001322 14.9427591,84.4725526 12.1232542,78.3445772 C9.30580581,72.2186344 7.89708161,64.7370168 7.89708161,55.9058219 C7.89708161,47.6152708 9.53408082,40.0909708 12.7566659,33.3329217 C16.0347774,26.5728402 20.4871685,20.7619342 26.167309,15.8941064 C31.853619,11.0283111 38.6669085,7.28851852 46.6668166,4.67676121 C54.6214811,2.06297141 63.3494016,0.756076509 72.8012211,0.756076509 C86.8000322,0.756076509 99.3921756,2.78450748 110.569425,6.83933691 C121.750788,10.8921339 132.253495,16.7945021 142.069321,24.5444092 L124.072612,49.6863842 C115.346748,43.3815818 106.707259,38.5584689 98.1623697,35.2251755 C89.6195371,31.8918821 80.9800476,30.2211704 72.2562402,30.2211704 C62.4363015,30.2211704 54.8003994,32.4264285 49.3444209,36.8471073 C43.8925554,41.2616885 41.1655944,46.6234128 41.1655944,52.9343128 Z" id="path-9"></path>
        <path d="M188.622551,84.6306082 C185.764968,82.9090974 182.735268,81.3663909 179.535657,80.0004095 C170.929809,76.3162101 161.5384,74.4741104 151.361433,74.4741104 C141.188878,74.4741104 131.848222,76.2704695 123.335052,79.8590294 C114.824088,83.4496685 107.535596,88.3272824 101.469576,94.4918712 C95.4013496,100.662697 90.6593063,107.931298 87.2324132,116.310149 C83.81214,124.684842 82.1020034,133.56684 82.1020034,142.958222 C82.1020034,152.343366 83.81214,161.229522 87.2324132,169.604215 C88.2540819,172.097079 89.3949085,174.498462 90.6593063,176.806284 L188.622551,84.6306082 Z M179.979189,206.606301 C188.49236,203.015662 195.778645,198.13389 201.844665,191.969301 C207.910685,185.802633 212.654935,178.534032 216.079621,170.15934 C219.502101,161.780489 221.212238,152.898491 221.212238,143.509188 C221.212238,134.121964 219.502101,125.235809 216.079621,116.861116 C215.057953,114.364094 213.917126,111.96479 212.654935,109.663205 L114.693897,201.830564 C117.549274,203.554154 120.578974,205.096861 123.774171,206.469079 C132.382226,210.149121 141.775841,211.989141 151.950602,211.989141 C162.123157,211.989141 171.466019,210.19694 179.979189,206.606301 Z M194.798902,235.185875 C181.689326,240.520896 167.211641,243.190485 151.361433,243.190485 C135.515638,243.190485 121.037952,240.568715 107.926169,235.323097 C101.211401,232.636875 94.9820903,229.455823 89.2448578,225.773702 L25.3387079,285.901833 L0.0198596509,262.079284 L63.7318263,202.138274 C59.1552801,196.029821 55.2980946,189.37456 52.1624764,182.166254 C46.8798092,170.013801 44.2384757,157.131578 44.2384757,143.509188 C44.2384757,129.884719 46.8798092,116.998338 52.1624764,104.850044 C57.4429369,92.6996703 64.8792728,82.0670541 74.4670709,72.9542741 C84.0526624,63.8414942 95.4013496,56.6186337 108.513132,51.2794553 C121.622709,45.9402768 136.100394,43.2686085 151.950602,43.2686085 C167.798604,43.2686085 182.276289,45.8966153 195.385865,51.1422334 C202.102841,53.8284555 208.329944,57.0095081 214.067177,60.6895493 L277.97774,0.559339489 L303.296588,24.3798095 L239.580208,84.3291359 C244.158961,90.4355094 248.016147,97.0886912 251.147352,104.294919 C256.434432,116.447371 259.075766,129.333753 259.075766,142.958222 C259.075766,156.578532 256.434432,169.466993 251.147352,181.615287 C245.864685,193.763581 238.432762,204.396197 228.844964,213.506898 C219.259372,222.621757 207.910685,229.846697 194.798902,235.185875 Z" id="path-11"></path>
    </defs>
    <g id="Style-Guide" stroke="none" stroke-width="1" fill="none" fill-rule="evenodd">
        <g id="Logos" transform="translate(-180.000000, -258.000000)">
            <g id="logo" transform="translate(180.000000, 258.000000)">
                <g id="Group-7" transform="translate(0.000000, 44.000000)">
                    <mask id="mask-2" fill="white">
                        <use xlink:href="#path-1"></use>
                    </mask>
                    <g id="Clip-6"></g>
                    <polygon id="Fill-5" fill="#130D1E" mask="url(#mask-2)" points="-0.0423867866 196.420409 181.033966 196.420409 181.033966 0.0812998384 -0.0423867866 0.0812998384"></polygon>
                </g>
                <g id="Group-10" transform="translate(608.000000, 45.000000)">
                    <mask id="mask-4" fill="white">
                        <use xlink:href="#path-3"></use>
                    </mask>
                    <g id="Clip-9"></g>
                    <polygon id="Fill-8" fill="#130D1E" mask="url(#mask-4)" points="0.1233919 195.420409 147.946888 195.420409 147.946888 0.544696929 0.1233919 0.544696929"></polygon>
                </g>
                <g id="Group-13" transform="translate(887.000000, 37.000000)">
                    <mask id="mask-6" fill="white">
                        <use xlink:href="#path-5"></use>
                    </mask>
                    <g id="Clip-12"></g>
                    <polygon id="Fill-11" fill="#130D1E" mask="url(#mask-6)" points="0.382909409 192.2125 195.156162 192.2125 195.156162 0.240131579 0.382909409 0.240131579"></polygon>
                </g>
                <g id="Group-16" transform="translate(1202.000000, 44.000000)">
                    <mask id="mask-8" fill="white">
                        <use xlink:href="#path-7"></use>
                    </mask>
                    <g id="Clip-15"></g>
                    <polygon id="Fill-14" fill="#130D1E" mask="url(#mask-8)" points="-0.0845440674 196.420409 212.562791 196.420409 212.562791 0.0812998384 -0.0845440674 0.0812998384"></polygon>
                </g>
                <g id="Group-19" transform="translate(1529.000000, 45.000000)">
                    <mask id="mask-10" fill="white">
                        <use xlink:href="#path-9"></use>
                    </mask>
                    <g id="Clip-18"></g>
                    <polygon id="Fill-17" fill="#130D1E" mask="url(#mask-10)" points="0.452436967 195.420409 148.275933 195.420409 148.275933 0.544696929 0.452436967 0.544696929"></polygon>
                </g>
                <g id="Group-22" transform="translate(246.000000, 0.000000)">
                    <mask id="mask-12" fill="white">
                        <use xlink:href="#path-11"></use>
                    </mask>
                    <g id="Clip-21"></g>
                    <polygon id="Fill-20" fill="#130D1E" mask="url(#mask-12)" points="-0.0441325575 286.001631 303.411333 286.001631 303.411333 0.330636364 -0.0441325575 0.330636364"></polygon>
                </g>
            </g>
        </g>
    </g>
</svg>