<?xml version="1.0" encoding="UTF-8" standalone="no"?><!DOCTYPE svg PUBLIC "-//W3C//DTD SVG 1.1//EN" "http://www.w3.org/Graphics/SVG/1.1/DTD/svg11.dtd"><svg width="100%" height="100%" viewBox="0 0 123 123" version="1.1" xmlns="http://www.w3.org/2000/svg" xmlns:xlink="http://www.w3.org/1999/xlink" xml:space="preserve" xmlns:serif="http://www.serif.com/" style="fill-rule:evenodd;clip-rule:evenodd;stroke-linejoin:round;stroke-miterlimit:1.41421;"><g id="Layer-1" serif:id="Layer 1"><g><path d="M40.096,61.703c-3.867,0 -7.012,-3.146 -7.012,-7.013c0,-3.867 3.145,-7.012 7.012,-7.012c3.866,0 7.012,3.145 7.012,7.012c0,3.867 -3.146,7.013 -7.012,7.013m0,-17.531c-5.8,0 -10.519,4.718 -10.519,10.518c0,5.8 4.719,10.519 10.519,10.519c5.8,0 10.519,-4.719 10.519,-10.519c0,-5.8 -4.719,-10.518 -10.519,-10.518" style="fill:#182858;fill-rule:nonzero;"/><rect x="57.802" y="33.127" width="3.506" height="31.555" style="fill:#182858;"/><path d="M96.897,44.698l0,19.985l3.506,0l0,-16.479l7.012,0l0,16.479l3.506,0l0,-16.479l7.013,0l0,16.479l3.506,0l0,-19.985l-24.543,0Z" style="fill:#182858;fill-rule:nonzero;"/><path d="M11.959,61.703c-3.867,0 -7.013,-3.146 -7.013,-7.013c0,-3.867 3.146,-7.012 7.013,-7.012c3.866,0 7.012,3.145 7.012,7.012c0,3.867 -3.146,7.013 -7.012,7.013m7.012,17.53c0,3.868 -3.146,7.013 -7.012,7.013c-3.867,0 -7.013,-3.145 -7.013,-7.013c0,-3.866 3.146,-7.012 7.013,-7.012c3.866,0 7.012,3.146 7.012,7.012m4.144,-38.179l-5.067,5.067c-1.72,-1.225 -3.821,-1.949 -6.089,-1.949c-5.8,0 -10.519,4.718 -10.519,10.518c0,5.203 3.797,9.532 8.765,10.37l0,3.804c-4.968,0.837 -8.765,5.167 -8.765,10.369c0,5.8 4.719,10.52 10.519,10.52c5.8,0 10.518,-4.72 10.518,-10.52c0,-5.202 -3.797,-9.532 -8.765,-10.369l0,-3.804c4.968,-0.838 8.765,-5.167 8.765,-10.37c0,-2.268 -0.724,-4.369 -1.95,-6.089l5.068,-5.067l-2.48,-2.48Z" style="fill:#182858;fill-rule:nonzero;"/><path d="M72.229,52.762c0.755,-3.071 3.336,-5.084 6.786,-5.084c3.324,0 5.798,2.018 6.476,5.084l-13.262,0Zm6.786,-8.59c-2.982,0 -5.685,1.091 -7.612,3.073c-1.874,1.927 -2.907,4.572 -2.907,7.445c0,2.89 1.006,5.531 2.832,7.437c1.933,2.016 4.591,3.082 7.687,3.082c3.329,0 6.781,-1.62 8.59,-4.032l-2.805,-2.104c-1.161,1.548 -3.54,2.629 -5.785,2.629c-3.644,0 -6.249,-2.126 -6.87,-5.434l17.038,0l0,-1.753c0,-2.791 -0.987,-5.374 -2.779,-7.273c-1.868,-1.98 -4.492,-3.07 -7.389,-3.07" style="fill:#182858;fill-rule:nonzero;"/></g></g></svg>