<?xml version="1.0" encoding="UTF-8" standalone="no"?>
<!DOCTYPE svg PUBLIC "-//W3C//DTD SVG 1.1//EN" "http://www.w3.org/Graphics/SVG/1.1/DTD/svg11.dtd">
<svg width="100%" height="100%" viewBox="0 0 400 400" version="1.1" xmlns="http://www.w3.org/2000/svg" xmlns:xlink="http://www.w3.org/1999/xlink" xml:space="preserve" xmlns:serif="http://www.serif.com/" style="fill-rule:evenodd;clip-rule:evenodd;stroke-linejoin:round;stroke-miterlimit:1.41421;">
    <g transform="matrix(1,0,0,1,-2,0)">
        <g transform="matrix(4.16667,0,0,4.16667,0,0)">
            <g>
                <g transform="matrix(1,0,0,1,0,3.12)">
                    <path d="M74.172,82.085L74.184,82.085L74.172,82.085ZM0.973,48.031L27.731,85.925L73.871,81.658L93.25,39.496L66.493,1.604L20.353,5.868L0.973,48.031ZM27.514,86.853C27.367,86.853 27.229,86.784 27.144,86.665L0.083,48.342C-0.008,48.208 -0.026,48.037 0.041,47.888L19.64,5.254C19.708,5.107 19.849,5.005 20.011,4.991L66.669,0.676C66.83,0.65 66.987,0.733 67.081,0.865L94.14,39.185C94.234,39.32 94.252,39.492 94.184,39.637L74.583,82.277C74.517,82.424 74.376,82.524 74.216,82.538L27.554,86.853L27.514,86.853Z" style="fill:rgb(3,4,4);fill-rule:nonzero;"/>
                </g>
                <g transform="matrix(1,0,0,1,0,3.12)">
                    <path d="M20.279,5.745L20.311,47.725L27.677,86.045L65.786,64.031L93.395,39.48L56.099,16.279L20.279,5.745ZM27.352,86.758L19.861,47.765L19.825,5.139L56.312,15.88L94.147,39.416L66.049,64.393L27.352,86.758Z" style="fill:rgb(3,4,4);fill-rule:nonzero;"/>
                </g>
                <g transform="matrix(1,0,0,1,0,3.12)">
                    <path d="M58.271,16.308C58.271,17.059 57.661,17.669 56.912,17.669C56.163,17.669 55.553,17.059 55.553,16.308C55.553,15.557 56.163,14.947 56.912,14.947C57.661,14.947 58.271,15.557 58.271,16.308Z" style="fill:rgb(3,4,4);fill-rule:nonzero;"/>
                </g>
                <g transform="matrix(1,0,0,1,0,3.12)">
                    <path d="M56.912,16.226L56.828,16.308C56.828,16.354 56.864,16.39 56.912,16.39L56.912,16.226ZM56.912,19.111C55.368,19.111 54.11,17.854 54.11,16.308C54.11,14.764 55.368,13.503 56.912,13.503C58.456,13.503 59.711,14.764 59.711,16.308C59.711,17.854 58.456,19.111 56.912,19.111Z" style="fill:rgb(3,4,4);fill-rule:nonzero;"/>
                </g>
                <g transform="matrix(1,0,0,1,0,3.12)">
                    <path d="M67.342,64.144C67.342,64.896 66.734,65.505 65.983,65.505C65.233,65.505 64.624,64.896 64.624,64.144C64.624,63.393 65.233,62.784 65.983,62.784C66.734,62.784 67.342,63.393 67.342,64.144Z" style="fill:rgb(3,4,4);fill-rule:nonzero;"/>
                </g>
                <g transform="matrix(1,0,0,1,0,3.12)">
                    <path d="M65.982,64.063L65.899,64.144C65.899,64.19 65.935,64.226 65.982,64.226L65.982,64.063ZM65.982,66.948C64.439,66.948 63.181,65.691 63.181,64.144C63.181,62.6 64.439,61.339 65.982,61.339C67.527,61.339 68.782,62.6 68.782,64.144C68.782,65.691 67.527,66.948 65.982,66.948Z" style="fill:rgb(3,4,4);fill-rule:nonzero;"/>
                </g>
                <g transform="matrix(1,0,0,1,0,3.12)">
                    <path d="M29.204,86.403C29.204,87.154 28.596,87.763 27.845,87.763C27.096,87.763 26.486,87.154 26.486,86.403C26.486,85.652 27.096,85.041 27.845,85.041C28.596,85.041 29.204,85.652 29.204,86.403Z" style="fill:rgb(3,4,4);fill-rule:nonzero;"/>
                </g>
                <g transform="matrix(1,0,0,1,0,3.12)">
                    <path d="M27.845,86.321L27.762,86.401C27.762,86.445 27.799,86.48 27.845,86.48L27.845,86.321ZM27.845,89.204C26.301,89.204 25.046,87.949 25.046,86.401C25.046,84.855 26.301,83.597 27.845,83.597C29.389,83.597 30.647,84.855 30.647,86.401C30.647,87.949 29.389,89.204 27.845,89.204Z" style="fill:rgb(3,4,4);fill-rule:nonzero;"/>
                </g>
                <g transform="matrix(1,0,0,1,0,3.12)">
                    <path d="M21.41,48.177C21.41,48.928 20.803,49.538 20.051,49.538C19.302,49.538 18.692,48.928 18.692,48.177C18.692,47.425 19.302,46.816 20.051,46.816C20.803,46.816 21.41,47.425 21.41,48.177Z" style="fill:rgb(3,4,4);fill-rule:nonzero;"/>
                </g>
                <g transform="matrix(1,0,0,1,0,3.12)">
                    <path d="M20.052,48.095L19.968,48.176C19.968,48.222 20.006,48.258 20.052,48.258L20.052,48.095ZM20.052,50.979C18.507,50.979 17.252,49.722 17.252,48.176C17.252,46.632 18.507,45.373 20.052,45.373C21.596,45.373 22.853,46.632 22.853,48.176C22.853,49.722 21.596,50.979 20.052,50.979Z" style="fill:rgb(3,4,4);fill-rule:nonzero;"/>
                </g>
                <g transform="matrix(1,0,0,1,0,3.12)">
                    <path d="M95.13,39.516C95.13,40.268 94.522,40.877 93.771,40.877C93.022,40.877 92.412,40.268 92.412,39.516C92.412,38.765 93.022,38.155 93.771,38.155C94.522,38.155 95.13,38.765 95.13,39.516Z" style="fill:rgb(3,4,4);fill-rule:nonzero;"/>
                </g>
                <g transform="matrix(1,0,0,1,0,3.12)">
                    <path d="M93.771,39.435L93.688,39.516C93.688,39.562 93.725,39.598 93.771,39.598L93.771,39.435ZM93.771,42.32C92.227,42.32 90.97,41.062 90.97,39.516C90.97,37.972 92.227,36.711 93.771,36.711C95.315,36.711 96.572,37.972 96.572,39.516C96.572,41.062 95.315,42.32 93.771,42.32Z" style="fill:rgb(3,4,4);fill-rule:nonzero;"/>
                </g>
                <g transform="matrix(1,0,0,1,0,3.12)">
                    <path d="M21.41,5.443C21.41,6.194 20.803,6.804 20.051,6.804C19.302,6.804 18.692,6.194 18.692,5.443C18.692,4.692 19.302,4.082 20.051,4.082C20.803,4.082 21.41,4.692 21.41,5.443Z" style="fill:rgb(3,4,4);fill-rule:nonzero;"/>
                </g>
                <g transform="matrix(1,0,0,1,0,3.12)">
                    <path d="M20.052,5.361L19.968,5.443C19.968,5.489 20.006,5.524 20.052,5.524L20.052,5.361ZM20.052,8.246C18.507,8.246 17.252,6.989 17.252,5.443C17.252,3.899 18.507,2.638 20.052,2.638C21.596,2.638 22.853,3.899 22.853,5.443C22.853,6.989 21.596,8.246 20.052,8.246Z" style="fill:rgb(3,4,4);fill-rule:nonzero;"/>
                </g>
                <g transform="matrix(1,0,0,1,0,3.12)">
                    <path d="M1.22,47.992L38.818,69.135L73.733,81.451L74.68,38.144L66.403,1.814L29.422,22.132L1.22,47.992ZM74.174,82.539C74.122,82.539 74.07,82.53 74.022,82.514L38.446,69.957L0.229,48.474C0.104,48.402 0.02,48.277 0.002,48.133C-0.013,47.988 0.038,47.844 0.146,47.743L28.898,21.397L66.493,0.728C66.619,0.66 66.766,0.654 66.897,0.714C67.027,0.772 67.121,0.887 67.152,1.025L75.576,38.056L74.624,82.098C74.622,82.242 74.548,82.376 74.431,82.458C74.353,82.512 74.263,82.539 74.174,82.539Z" style="fill:rgb(3,4,4);fill-rule:nonzero;"/>
                </g>
                <g transform="matrix(1,0,0,1,0,3.12)">
                    <path d="M20.274,48.134L65.835,63.974L56.835,16.523L20.274,48.134ZM66.131,64.317L65.944,64.25L19.83,48.22L19.978,48.088L56.986,16.094L66.131,64.317Z" style="fill:rgb(3,4,4);fill-rule:nonzero;"/>
                </g>
                <g transform="matrix(1,0,0,1,0,3.12)">
                    <path d="M29.803,22.429L38.89,68.676L74.248,38.318L29.803,22.429ZM38.303,70.378L28.607,21.038L76.021,37.992L38.303,70.378Z" style="fill:rgb(3,4,4);fill-rule:nonzero;"/>
                </g>
                <g transform="matrix(1,0,0,1,0,3.12)">
                    <path d="M28.809,21.955L19.655,5.665L20.448,5.219L29.6,21.511L28.809,21.955Z" style="fill:rgb(3,4,4);fill-rule:nonzero;"/>
                </g>
                <g transform="matrix(1,0,0,1,0,3.12)">
                    <path d="M28.227,86.645L27.464,86.157L38.213,69.284L38.978,69.77L28.227,86.645Z" style="fill:rgb(3,4,4);fill-rule:nonzero;"/>
                </g>
                <g transform="matrix(1,0,0,1,0,3.12)">
                    <path d="M93.738,39.968L75.101,38.608L75.165,37.705L93.802,39.063L93.738,39.968Z" style="fill:rgb(3,4,4);fill-rule:nonzero;"/>
                </g>
            </g>
        </g>
    </g>
</svg>
