<?xml version="1.0" encoding="UTF-8" standalone="no"?>
<!DOCTYPE svg PUBLIC "-//W3C//DTD SVG 1.1//EN" "http://www.w3.org/Graphics/SVG/1.1/DTD/svg11.dtd">
<svg width="100%" height="100%" viewBox="0 0 1909 400" version="1.1" xmlns="http://www.w3.org/2000/svg" xmlns:xlink="http://www.w3.org/1999/xlink" xml:space="preserve" xmlns:serif="http://www.serif.com/" style="fill-rule:evenodd;clip-rule:evenodd;stroke-linejoin:round;stroke-miterlimit:1.41421;">
    <g transform="matrix(4.16667,0,0,4.16667,0,0)">
        <g>
            <g transform="matrix(1,0,0,1,0,3.12)">
                <path d="M74.172,82.085L74.184,82.085L74.172,82.085ZM0.973,48.031L27.731,85.925L73.871,81.658L93.25,39.496L66.493,1.604L20.353,5.868L0.973,48.031ZM27.514,86.853C27.367,86.853 27.229,86.784 27.144,86.665L0.083,48.342C-0.008,48.208 -0.026,48.037 0.041,47.888L19.64,5.254C19.708,5.107 19.849,5.005 20.011,4.991L66.669,0.676C66.83,0.65 66.987,0.733 67.081,0.865L94.14,39.185C94.234,39.32 94.252,39.492 94.184,39.637L74.583,82.277C74.517,82.424 74.376,82.524 74.216,82.538L27.554,86.853L27.514,86.853Z" style="fill:rgb(3,4,4);fill-rule:nonzero;"/>
            </g>
            <g transform="matrix(1,0,0,1,0,3.12)">
                <path d="M20.279,5.745L20.311,47.725L27.677,86.045L65.786,64.031L93.395,39.48L56.099,16.279L20.279,5.745ZM27.352,86.758L19.861,47.765L19.825,5.139L56.312,15.88L94.147,39.416L66.049,64.393L27.352,86.758Z" style="fill:rgb(3,4,4);fill-rule:nonzero;"/>
            </g>
            <g transform="matrix(1,0,0,1,0,3.12)">
                <path d="M58.271,16.308C58.271,17.059 57.661,17.669 56.912,17.669C56.163,17.669 55.553,17.059 55.553,16.308C55.553,15.557 56.163,14.947 56.912,14.947C57.661,14.947 58.271,15.557 58.271,16.308Z" style="fill:rgb(3,4,4);fill-rule:nonzero;"/>
            </g>
            <g transform="matrix(1,0,0,1,0,3.12)">
                <path d="M56.912,16.226L56.828,16.308C56.828,16.354 56.864,16.39 56.912,16.39L56.912,16.226ZM56.912,19.111C55.368,19.111 54.11,17.854 54.11,16.308C54.11,14.764 55.368,13.503 56.912,13.503C58.456,13.503 59.711,14.764 59.711,16.308C59.711,17.854 58.456,19.111 56.912,19.111Z" style="fill:rgb(3,4,4);fill-rule:nonzero;"/>
            </g>
            <g transform="matrix(1,0,0,1,0,3.12)">
                <path d="M67.342,64.144C67.342,64.896 66.734,65.505 65.983,65.505C65.233,65.505 64.624,64.896 64.624,64.144C64.624,63.393 65.233,62.784 65.983,62.784C66.734,62.784 67.342,63.393 67.342,64.144Z" style="fill:rgb(3,4,4);fill-rule:nonzero;"/>
            </g>
            <g transform="matrix(1,0,0,1,0,3.12)">
                <path d="M65.982,64.063L65.899,64.144C65.899,64.19 65.935,64.226 65.982,64.226L65.982,64.063ZM65.982,66.948C64.439,66.948 63.181,65.691 63.181,64.144C63.181,62.6 64.439,61.339 65.982,61.339C67.527,61.339 68.782,62.6 68.782,64.144C68.782,65.691 67.527,66.948 65.982,66.948Z" style="fill:rgb(3,4,4);fill-rule:nonzero;"/>
            </g>
            <g transform="matrix(1,0,0,1,0,3.12)">
                <path d="M29.204,86.403C29.204,87.154 28.596,87.763 27.845,87.763C27.096,87.763 26.486,87.154 26.486,86.403C26.486,85.652 27.096,85.041 27.845,85.041C28.596,85.041 29.204,85.652 29.204,86.403Z" style="fill:rgb(3,4,4);fill-rule:nonzero;"/>
            </g>
            <g transform="matrix(1,0,0,1,0,3.12)">
                <path d="M27.845,86.321L27.762,86.401C27.762,86.445 27.799,86.48 27.845,86.48L27.845,86.321ZM27.845,89.204C26.301,89.204 25.046,87.949 25.046,86.401C25.046,84.855 26.301,83.597 27.845,83.597C29.389,83.597 30.647,84.855 30.647,86.401C30.647,87.949 29.389,89.204 27.845,89.204Z" style="fill:rgb(3,4,4);fill-rule:nonzero;"/>
            </g>
            <g transform="matrix(1,0,0,1,0,3.12)">
                <path d="M21.41,48.177C21.41,48.928 20.803,49.538 20.051,49.538C19.302,49.538 18.692,48.928 18.692,48.177C18.692,47.425 19.302,46.816 20.051,46.816C20.803,46.816 21.41,47.425 21.41,48.177Z" style="fill:rgb(3,4,4);fill-rule:nonzero;"/>
            </g>
            <g transform="matrix(1,0,0,1,0,3.12)">
                <path d="M20.052,48.095L19.968,48.176C19.968,48.222 20.006,48.258 20.052,48.258L20.052,48.095ZM20.052,50.979C18.507,50.979 17.252,49.722 17.252,48.176C17.252,46.632 18.507,45.373 20.052,45.373C21.596,45.373 22.853,46.632 22.853,48.176C22.853,49.722 21.596,50.979 20.052,50.979Z" style="fill:rgb(3,4,4);fill-rule:nonzero;"/>
            </g>
            <g transform="matrix(1,0,0,1,0,3.12)">
                <path d="M95.13,39.516C95.13,40.268 94.522,40.877 93.771,40.877C93.022,40.877 92.412,40.268 92.412,39.516C92.412,38.765 93.022,38.155 93.771,38.155C94.522,38.155 95.13,38.765 95.13,39.516Z" style="fill:rgb(3,4,4);fill-rule:nonzero;"/>
            </g>
            <g transform="matrix(1,0,0,1,0,3.12)">
                <path d="M93.771,39.435L93.688,39.516C93.688,39.562 93.725,39.598 93.771,39.598L93.771,39.435ZM93.771,42.32C92.227,42.32 90.97,41.062 90.97,39.516C90.97,37.972 92.227,36.711 93.771,36.711C95.315,36.711 96.572,37.972 96.572,39.516C96.572,41.062 95.315,42.32 93.771,42.32Z" style="fill:rgb(3,4,4);fill-rule:nonzero;"/>
            </g>
            <g transform="matrix(1,0,0,1,0,3.12)">
                <path d="M21.41,5.443C21.41,6.194 20.803,6.804 20.051,6.804C19.302,6.804 18.692,6.194 18.692,5.443C18.692,4.692 19.302,4.082 20.051,4.082C20.803,4.082 21.41,4.692 21.41,5.443Z" style="fill:rgb(3,4,4);fill-rule:nonzero;"/>
            </g>
            <g transform="matrix(1,0,0,1,0,3.12)">
                <path d="M20.052,5.361L19.968,5.443C19.968,5.489 20.006,5.524 20.052,5.524L20.052,5.361ZM20.052,8.246C18.507,8.246 17.252,6.989 17.252,5.443C17.252,3.899 18.507,2.638 20.052,2.638C21.596,2.638 22.853,3.899 22.853,5.443C22.853,6.989 21.596,8.246 20.052,8.246Z" style="fill:rgb(3,4,4);fill-rule:nonzero;"/>
            </g>
            <g transform="matrix(1,0,0,1,0,3.12)">
                <path d="M1.22,47.992L38.818,69.135L73.733,81.451L74.68,38.144L66.403,1.814L29.422,22.132L1.22,47.992ZM74.174,82.539C74.122,82.539 74.07,82.53 74.022,82.514L38.446,69.957L0.229,48.474C0.104,48.402 0.02,48.277 0.002,48.133C-0.013,47.988 0.038,47.844 0.146,47.743L28.898,21.397L66.493,0.728C66.619,0.66 66.766,0.654 66.897,0.714C67.027,0.772 67.121,0.887 67.152,1.025L75.576,38.056L74.624,82.098C74.622,82.242 74.548,82.376 74.431,82.458C74.353,82.512 74.263,82.539 74.174,82.539Z" style="fill:rgb(3,4,4);fill-rule:nonzero;"/>
            </g>
            <g transform="matrix(1,0,0,1,0,3.12)">
                <path d="M20.274,48.134L65.835,63.974L56.835,16.523L20.274,48.134ZM66.131,64.317L65.944,64.25L19.83,48.22L19.978,48.088L56.986,16.094L66.131,64.317Z" style="fill:rgb(3,4,4);fill-rule:nonzero;"/>
            </g>
            <g transform="matrix(1,0,0,1,0,3.12)">
                <path d="M29.803,22.429L38.89,68.676L74.248,38.318L29.803,22.429ZM38.303,70.378L28.607,21.038L76.021,37.992L38.303,70.378Z" style="fill:rgb(3,4,4);fill-rule:nonzero;"/>
            </g>
            <g transform="matrix(1,0,0,1,0,3.12)">
                <path d="M28.809,21.955L19.655,5.665L20.448,5.219L29.6,21.511L28.809,21.955Z" style="fill:rgb(3,4,4);fill-rule:nonzero;"/>
            </g>
            <g transform="matrix(1,0,0,1,0,3.12)">
                <path d="M28.227,86.645L27.464,86.157L38.213,69.284L38.978,69.77L28.227,86.645Z" style="fill:rgb(3,4,4);fill-rule:nonzero;"/>
            </g>
            <g transform="matrix(1,0,0,1,0,3.12)">
                <path d="M93.738,39.968L75.101,38.608L75.165,37.705L93.802,39.063L93.738,39.968Z" style="fill:rgb(3,4,4);fill-rule:nonzero;"/>
            </g>
        </g>
        <g transform="matrix(1,0,0,1,0,3.12)">
            <path d="M115.052,27.863L122.556,27.855L122.568,40.539L137.14,40.525L137.128,27.841L144.63,27.835L144.66,61.86L137.158,61.864L137.144,47.16L122.572,47.173L122.584,61.878L115.084,61.885L115.052,27.863Z" style="fill:rgb(3,4,4);fill-rule:nonzero;"/>
            <path d="M159.46,47.373L146.647,27.875L155.978,27.866L163.202,40.595L170.839,27.852L179.735,27.848L166.964,47.369L166.976,61.879L159.472,61.886L159.46,47.373Z" style="fill:rgb(3,4,4);fill-rule:nonzero;"/>
            <path d="M189.269,42.274L194.27,42.27C194.948,42.27 195.593,42.204 196.219,42.075C196.844,41.949 197.402,41.728 197.902,41.425C198.398,41.118 198.797,40.704 199.1,40.174C199.407,39.646 199.558,38.984 199.558,38.182C199.558,37.317 199.355,36.617 198.955,36.091C198.554,35.563 198.04,35.153 197.412,34.864C196.791,34.579 196.091,34.396 195.322,34.314C194.553,34.236 193.814,34.197 193.108,34.201L189.261,34.203L189.269,42.274ZM181.752,27.865L194.402,27.854C196.165,27.853 197.836,28.01 199.405,28.331C200.975,28.647 202.345,29.2 203.519,29.982C204.688,30.77 205.619,31.824 206.308,33.153C207,34.479 207.346,36.155 207.348,38.173C207.348,40.16 207.032,41.824 206.392,43.172C205.75,44.517 204.87,45.589 203.75,46.394C202.626,47.197 201.299,47.765 199.757,48.104C198.221,48.442 196.552,48.61 194.756,48.612L189.273,48.618L189.285,61.879L181.784,61.887L181.752,27.865Z" style="fill:rgb(3,4,4);fill-rule:nonzero;"/>
            <path d="M211.86,27.863L234.992,27.843L234.996,34.763L219.368,34.777L219.375,41.121L234.139,41.107L234.143,48.026L219.379,48.038L219.383,54.962L235.881,54.944L235.887,61.866L211.892,61.885L211.86,27.863Z" style="fill:rgb(3,4,4);fill-rule:nonzero;"/>
            <path d="M248.901,41.935L253.328,41.933C254.002,41.932 254.713,41.907 255.467,41.855C256.22,41.808 256.901,41.665 257.51,41.423C258.116,41.182 258.62,40.804 259.022,40.293C259.419,39.78 259.62,39.058 259.62,38.132C259.616,37.265 259.441,36.576 259.091,36.064C258.739,35.552 258.29,35.161 257.743,34.886C257.2,34.615 256.571,34.432 255.869,34.334C255.163,34.241 254.473,34.193 253.801,34.197L248.894,34.199L248.901,41.935ZM241.384,27.863L254.563,27.851C256.297,27.849 257.937,28.017 259.493,28.351C261.047,28.688 262.408,29.248 263.581,30.029C264.751,30.814 265.684,31.87 266.375,33.197C267.063,34.525 267.407,36.185 267.411,38.17C267.415,40.573 266.787,42.617 265.54,44.3C264.291,45.984 262.466,47.05 260.058,47.502L268.729,61.862L259.736,61.872L252.611,48.275L248.905,48.279L248.917,61.878L241.416,61.887L241.384,27.863Z" style="fill:rgb(3,4,4);fill-rule:nonzero;"/>
            <path d="M272.354,27.863L279.858,27.859L279.878,54.962L293.779,54.95L293.787,61.87L272.387,61.885L272.354,27.863Z" style="fill:rgb(3,4,4);fill-rule:nonzero;"/>
            <path d="M297.697,27.863L320.831,27.843L320.837,34.763L305.207,34.777L305.215,41.121L319.977,41.108L319.982,48.028L305.219,48.038L305.225,54.962L321.722,54.944L321.726,61.866L297.731,61.885L297.697,27.863Z" style="fill:rgb(3,4,4);fill-rule:nonzero;"/>
            <path d="M334.752,54.962L338.648,54.958C340.38,54.954 341.988,54.778 343.48,54.423C344.971,54.067 346.26,53.483 347.35,52.665C348.439,51.85 349.296,50.775 349.92,49.442C350.542,48.114 350.854,46.488 350.853,44.565C350.851,42.9 350.54,41.451 349.91,40.218C349.284,38.983 348.443,37.966 347.384,37.17C346.325,36.368 345.08,35.767 343.658,35.37C342.228,34.97 340.729,34.772 339.161,34.772L334.731,34.778L334.752,54.962ZM327.225,27.863L338.479,27.853C341.203,27.849 343.793,28.156 346.248,28.757C348.698,29.365 350.841,30.351 352.67,31.71C354.5,33.069 355.949,34.834 357.026,37.014C358.103,39.194 358.641,41.835 358.645,44.944C358.646,47.701 358.127,50.128 357.087,52.224C356.047,54.324 354.646,56.087 352.887,57.512C351.121,58.943 349.087,60.022 346.78,60.763C344.471,61.5 342.052,61.874 339.52,61.875L327.254,61.885L327.225,27.863Z" style="fill:rgb(3,4,4);fill-rule:nonzero;"/>
            <path d="M394.102,59.232C391.89,60.387 389.582,61.224 387.178,61.74C384.776,62.254 382.324,62.509 379.819,62.515C377.16,62.515 374.709,62.101 372.464,61.272C370.218,60.439 368.277,59.248 366.644,57.692C365.004,56.146 363.727,54.263 362.813,52.055C361.894,49.839 361.438,47.375 361.434,44.65C361.432,41.93 361.886,39.461 362.797,37.251C363.711,35.04 364.982,33.159 366.618,31.601C368.248,30.047 370.19,28.852 372.432,28.017C374.677,27.182 377.126,26.761 379.79,26.761C382.514,26.755 385.023,27.084 387.315,27.736C389.608,28.391 391.625,29.521 393.356,31.123L388.072,36.893C387.044,35.837 385.889,35.036 384.605,34.49C383.322,33.948 381.719,33.675 379.796,33.681C378.191,33.681 376.743,33.956 375.444,34.5C374.147,35.048 373.033,35.805 372.105,36.783C371.175,37.764 370.465,38.925 369.967,40.272C369.471,41.619 369.226,43.077 369.226,44.646C369.228,46.247 369.475,47.712 369.976,49.042C370.476,50.372 371.188,51.521 372.117,52.5C373.048,53.478 374.163,54.235 375.462,54.783C376.759,55.323 378.212,55.595 379.815,55.593C381.453,55.589 382.864,55.405 384.05,55.036C385.233,54.67 386.18,54.292 386.881,53.902L386.879,48.377L380.772,48.385L380.764,41.459L394.085,41.452L394.102,59.232Z" style="fill:rgb(3,4,4);fill-rule:nonzero;"/>
            <path d="M400.471,27.863L423.603,27.841L423.606,34.761L407.979,34.775L407.986,41.119L422.746,41.107L422.754,48.026L407.992,48.038L407.994,54.959L424.491,54.942L424.499,61.864L400.503,61.885L400.471,27.863Z" style="fill:rgb(3,4,4);fill-rule:nonzero;"/>
            <path d="M437.509,41.937L441.936,41.934C442.609,41.934 443.322,41.906 444.075,41.862C444.829,41.81 445.508,41.666 446.118,41.423C446.726,41.185 447.229,40.806 447.632,40.296C448.028,39.782 448.231,39.061 448.229,38.134C448.229,37.268 448.051,36.578 447.702,36.066C447.347,35.556 446.896,35.164 446.353,34.889C445.807,34.618 445.18,34.432 444.476,34.337C443.771,34.241 443.081,34.195 442.408,34.195L437.501,34.201L437.509,41.937ZM429.997,27.863L443.173,27.854C444.904,27.852 446.546,28.015 448.103,28.354C449.656,28.69 451.017,29.25 452.192,30.031C453.362,30.812 454.293,31.87 454.984,33.199C455.676,34.526 456.018,36.187 456.022,38.172C456.024,40.575 455.396,42.619 454.151,44.303C452.904,45.983 451.077,47.05 448.672,47.504L457.341,61.864L448.348,61.87L441.219,48.277L437.517,48.281L437.528,61.879L430.027,61.887L429.997,27.863Z" style="fill:rgb(3,4,4);fill-rule:nonzero;"/>
        </g>
        <g>
            <path d="M119.533,91.457C120.74,91.457 121.696,91.172 122.417,90.585C123.121,90.015 123.473,89.176 123.473,88.086C123.473,87.315 123.255,86.661 122.786,86.091C122.333,85.521 121.713,85.186 120.941,85.068C121.461,84.85 121.88,84.548 122.199,84.146C122.517,83.727 122.668,83.274 122.668,82.754C122.668,81.681 122.316,80.876 121.612,80.34C120.908,79.803 119.935,79.535 118.694,79.535L114.804,79.535L114.804,91.457L119.533,91.457ZM119.449,85.856L119.549,85.856C120.254,85.89 120.824,86.108 121.226,86.51C121.645,86.913 121.847,87.449 121.847,88.103C121.847,88.774 121.645,89.294 121.243,89.646C120.841,90.015 120.27,90.199 119.533,90.199L116.414,90.199L116.414,85.856L119.449,85.856ZM116.414,80.809L118.694,80.809C119.466,80.809 120.036,80.96 120.455,81.279C120.857,81.597 121.059,82.084 121.059,82.721C121.059,83.324 120.874,83.777 120.488,84.112C120.12,84.431 119.633,84.599 119.03,84.599L116.414,84.599L116.414,80.809Z" style="fill:rgb(3,4,4);fill-rule:nonzero;"/>
            <path d="M127.074,79.535L125.464,79.535L125.464,91.457L132.892,91.457L132.892,90.199L127.074,90.199L127.074,79.535Z" style="fill:rgb(3,4,4);fill-rule:nonzero;"/>
            <path d="M143.268,84.448C143.268,82.989 142.815,81.765 141.91,80.809C141.004,79.853 139.831,79.367 138.389,79.367C136.997,79.367 135.874,79.853 135.002,80.809C134.13,81.782 133.694,82.989 133.694,84.448L133.694,86.561C133.694,88.019 134.13,89.227 135.002,90.182C135.874,91.155 136.997,91.624 138.389,91.624C139.831,91.624 141.004,91.155 141.91,90.182C142.815,89.227 143.268,88.019 143.268,86.561L143.268,84.448ZM141.658,86.561C141.658,87.667 141.357,88.573 140.77,89.26C140.183,89.964 139.395,90.316 138.389,90.316C137.45,90.316 136.712,89.964 136.142,89.26C135.588,88.556 135.303,87.667 135.303,86.561L135.303,84.431C135.303,83.324 135.588,82.436 136.142,81.731C136.712,81.044 137.45,80.692 138.389,80.692C139.395,80.692 140.183,81.044 140.77,81.731C141.357,82.436 141.658,83.324 141.658,84.431L141.658,86.561Z" style="fill:rgb(3,4,4);fill-rule:nonzero;"/>
            <path d="M152.552,87.634C152.552,88.489 152.3,89.16 151.814,89.646C151.327,90.132 150.623,90.367 149.735,90.367C148.829,90.367 148.125,89.998 147.588,89.277C147.052,88.556 146.783,87.65 146.783,86.561L146.783,84.431C146.783,83.341 147.052,82.452 147.588,81.715C148.125,80.994 148.829,80.625 149.735,80.625C150.623,80.625 151.327,80.876 151.814,81.363C152.3,81.849 152.552,82.503 152.552,83.341L154.094,83.341L154.111,83.291C154.144,82.117 153.759,81.161 152.954,80.44C152.149,79.719 151.076,79.367 149.735,79.367C148.393,79.367 147.286,79.837 146.448,80.792C145.593,81.765 145.174,82.972 145.174,84.448L145.174,86.561C145.174,88.036 145.593,89.243 146.448,90.199C147.286,91.155 148.393,91.624 149.735,91.624C151.059,91.624 152.132,91.255 152.937,90.501C153.742,89.746 154.144,88.807 154.111,87.684L154.094,87.634L152.552,87.634Z" style="fill:rgb(3,4,4);fill-rule:nonzero;"/>
            <path d="M163.339,91.457L165.3,91.457L165.3,91.423L160.136,85.219L164.965,79.568L164.948,79.535L163.137,79.535L158.711,84.817L157.822,84.817L157.822,79.535L156.212,79.535L156.212,91.457L157.822,91.457L157.822,86.074L158.878,86.074L163.339,91.457Z" style="fill:rgb(3,4,4);fill-rule:nonzero;"/>
            <path d="M173.579,87.634C173.579,88.489 173.327,89.16 172.841,89.646C172.355,90.132 171.651,90.367 170.762,90.367C169.856,90.367 169.152,89.998 168.616,89.277C168.079,88.556 167.811,87.65 167.811,86.561L167.811,84.431C167.811,83.341 168.079,82.452 168.616,81.715C169.152,80.994 169.856,80.625 170.762,80.625C171.651,80.625 172.355,80.876 172.841,81.363C173.327,81.849 173.579,82.503 173.579,83.341L175.121,83.341L175.138,83.291C175.172,82.117 174.786,81.161 173.981,80.44C173.176,79.719 172.103,79.367 170.762,79.367C169.42,79.367 168.314,79.837 167.475,80.792C166.62,81.765 166.201,82.972 166.201,84.448L166.201,86.561C166.201,88.036 166.62,89.243 167.475,90.199C168.314,91.155 169.42,91.624 170.762,91.624C172.086,91.624 173.16,91.255 173.964,90.501C174.769,89.746 175.172,88.807 175.138,87.684L175.121,87.634L173.579,87.634Z" style="fill:rgb(3,4,4);fill-rule:nonzero;"/>
            <path d="M186.26,79.535L184.634,79.535L184.634,84.917L178.849,84.917L178.849,79.535L177.239,79.535L177.239,91.457L178.849,91.457L178.849,86.192L184.634,86.192L184.634,91.457L186.26,91.457L186.26,79.535Z" style="fill:rgb(3,4,4);fill-rule:nonzero;"/>
            <path d="M196.381,91.457L198.025,91.457L193.816,79.535L192.424,79.535L188.132,91.457L189.775,91.457L190.848,88.388L195.325,88.388L196.381,91.457ZM193.078,81.916L193.128,81.916L194.872,87.03L191.301,87.03L193.078,81.916Z" style="fill:rgb(3,4,4);fill-rule:nonzero;"/>
            <rect x="199.941" y="79.535" width="1.61" height="11.922" style="fill:rgb(3,4,4);fill-rule:nonzero;"/>
            <path d="M213.535,79.535L211.909,79.535L211.909,88.623L211.859,88.64L206.124,79.535L204.514,79.535L204.514,91.457L206.124,91.457L206.124,82.369L206.174,82.352L211.909,91.457L213.535,91.457L213.535,79.535Z" style="fill:rgb(3,4,4);fill-rule:nonzero;"/>
            <path d="M228.821,79.535L219.398,79.535L219.398,80.809L223.288,80.809L223.288,91.457L224.898,91.457L224.898,80.809L228.821,80.809L228.821,79.535Z" style="fill:rgb(3,4,4);fill-rule:nonzero;"/>
            <path d="M237.023,84.666L232.127,84.666L232.127,80.809L237.778,80.809L237.778,79.535L230.517,79.535L230.517,91.457L237.862,91.457L237.862,90.199L232.127,90.199L232.127,85.923L237.023,85.923L237.023,84.666Z" style="fill:rgb(3,4,4);fill-rule:nonzero;"/>
            <path d="M246.728,87.634C246.728,88.489 246.476,89.16 245.99,89.646C245.504,90.132 244.799,90.367 243.911,90.367C243.005,90.367 242.301,89.998 241.764,89.277C241.228,88.556 240.959,87.65 240.959,86.561L240.959,84.431C240.959,83.341 241.228,82.453 241.764,81.715C242.301,80.994 243.005,80.625 243.911,80.625C244.799,80.625 245.504,80.876 245.99,81.363C246.476,81.849 246.728,82.503 246.728,83.341L248.27,83.341L248.287,83.291C248.32,82.117 247.935,81.161 247.13,80.44C246.325,79.719 245.252,79.367 243.911,79.367C242.569,79.367 241.462,79.837 240.624,80.792C239.769,81.765 239.35,82.972 239.35,84.448L239.35,86.561C239.35,88.036 239.769,89.243 240.624,90.199C241.462,91.155 242.569,91.624 243.911,91.624C245.235,91.624 246.308,91.256 247.113,90.501C247.918,89.746 248.32,88.807 248.287,87.684L248.27,87.634L246.728,87.634Z" style="fill:rgb(3,4,4);fill-rule:nonzero;"/>
            <path d="M259.409,79.535L257.783,79.535L257.783,84.917L251.998,84.917L251.998,79.535L250.388,79.535L250.388,91.457L251.998,91.457L251.998,86.192L257.783,86.192L257.783,91.457L259.409,91.457L259.409,79.535Z" style="fill:rgb(3,4,4);fill-rule:nonzero;"/>
            <path d="M271.207,79.535L269.581,79.535L269.581,88.623L269.53,88.64L263.796,79.535L262.186,79.535L262.186,91.457L263.796,91.457L263.796,82.369L263.846,82.352L269.581,91.457L271.207,91.457L271.207,79.535Z" style="fill:rgb(3,4,4);fill-rule:nonzero;"/>
            <path d="M283.097,84.448C283.097,82.989 282.645,81.765 281.739,80.809C280.834,79.854 279.66,79.367 278.218,79.367C276.826,79.367 275.703,79.854 274.831,80.809C273.959,81.782 273.523,82.989 273.523,84.448L273.523,86.561C273.523,88.019 273.959,89.227 274.831,90.182C275.703,91.155 276.826,91.624 278.218,91.624C279.66,91.624 280.834,91.155 281.739,90.182C282.645,89.227 283.097,88.019 283.097,86.561L283.097,84.448ZM281.488,86.561C281.488,87.667 281.186,88.573 280.599,89.26C280.012,89.964 279.224,90.317 278.218,90.317C277.279,90.317 276.541,89.964 275.971,89.26C275.418,88.556 275.133,87.667 275.133,86.561L275.133,84.431C275.133,83.324 275.418,82.436 275.971,81.732C276.541,81.044 277.279,80.692 278.218,80.692C279.224,80.692 280.012,81.044 280.599,81.732C281.186,82.436 281.488,83.324 281.488,84.431L281.488,86.561Z" style="fill:rgb(3,4,4);fill-rule:nonzero;"/>
            <path d="M287.032,79.535L285.422,79.535L285.422,91.457L292.85,91.457L292.85,90.199L287.032,90.199L287.032,79.535Z" style="fill:rgb(3,4,4);fill-rule:nonzero;"/>
            <path d="M303.226,84.448C303.226,82.989 302.773,81.765 301.868,80.809C300.962,79.853 299.789,79.367 298.347,79.367C296.955,79.367 295.832,79.853 294.96,80.809C294.088,81.782 293.652,82.989 293.652,84.448L293.652,86.561C293.652,88.019 294.088,89.227 294.96,90.182C295.832,91.155 296.955,91.624 298.347,91.624C299.789,91.624 300.962,91.155 301.868,90.182C302.773,89.227 303.226,88.019 303.226,86.561L303.226,84.448ZM301.616,86.561C301.616,87.667 301.315,88.573 300.728,89.26C300.141,89.964 299.353,90.316 298.347,90.316C297.408,90.316 296.67,89.964 296.1,89.26C295.546,88.556 295.261,87.667 295.261,86.561L295.261,84.431C295.261,83.324 295.546,82.436 296.1,81.731C296.67,81.044 297.408,80.692 298.347,80.692C299.353,80.692 300.141,81.044 300.728,81.731C301.315,82.436 301.616,83.324 301.616,84.431L301.616,86.561Z" style="fill:rgb(3,4,4);fill-rule:nonzero;"/>
            <path d="M314.118,85.504L309.809,85.504L309.809,86.762L312.509,86.762L312.509,89.445C312.307,89.696 312.006,89.914 311.586,90.099C311.184,90.283 310.614,90.367 309.91,90.367C309.004,90.367 308.25,90.031 307.663,89.344C307.059,88.657 306.774,87.785 306.774,86.728L306.774,84.247C306.774,83.207 307.042,82.335 307.612,81.664C308.166,80.977 308.903,80.625 309.809,80.625C310.664,80.625 311.335,80.876 311.804,81.363C312.274,81.849 312.509,82.452 312.509,83.173L314.051,83.173L314.068,83.123C314.101,82.033 313.716,81.128 312.945,80.424C312.19,79.719 311.134,79.367 309.809,79.367C308.434,79.367 307.311,79.82 306.455,80.725C305.583,81.648 305.148,82.821 305.148,84.263L305.148,86.728C305.148,88.17 305.6,89.344 306.506,90.266C307.394,91.172 308.535,91.624 309.91,91.624C311.033,91.624 311.938,91.44 312.643,91.071C313.347,90.702 313.833,90.3 314.118,89.847L314.118,85.504Z" style="fill:rgb(3,4,4);fill-rule:nonzero;"/>
            <rect x="317.074" y="79.535" width="1.61" height="11.922" style="fill:rgb(3,4,4);fill-rule:nonzero;"/>
            <path d="M328.152,84.666L323.256,84.666L323.256,80.809L328.907,80.809L328.907,79.535L321.647,79.535L321.647,91.457L328.991,91.457L328.991,90.199L323.256,90.199L323.256,85.923L328.152,85.923L328.152,84.666Z" style="fill:rgb(3,4,4);fill-rule:nonzero;"/>
            <path d="M336.583,89.847C336.147,90.199 335.543,90.367 334.772,90.367C334.051,90.367 333.414,90.166 332.844,89.763C332.274,89.344 331.988,88.774 331.988,88.019L330.463,88.019L330.446,88.07C330.412,89.16 330.848,90.015 331.72,90.669C332.609,91.306 333.615,91.624 334.772,91.624C335.996,91.624 336.968,91.339 337.723,90.752C338.494,90.166 338.863,89.394 338.863,88.439C338.863,87.55 338.545,86.795 337.924,86.192C337.304,85.588 336.382,85.135 335.174,84.817C334.185,84.548 333.481,84.247 333.045,83.911C332.592,83.559 332.374,83.123 332.374,82.603C332.374,82.017 332.575,81.547 332.978,81.178C333.38,80.809 333.967,80.625 334.722,80.625C335.443,80.625 336.063,80.86 336.533,81.296C337.002,81.731 337.237,82.302 337.237,82.972L338.779,82.972L338.796,82.922C338.83,81.983 338.461,81.145 337.723,80.44C336.968,79.719 335.962,79.367 334.722,79.367C333.548,79.367 332.592,79.669 331.871,80.289C331.133,80.927 330.764,81.698 330.764,82.637C330.764,83.509 331.1,84.247 331.787,84.833C332.475,85.42 333.414,85.856 334.621,86.158C335.594,86.41 336.281,86.728 336.667,87.097C337.052,87.466 337.254,87.919 337.254,88.455C337.254,89.042 337.036,89.512 336.583,89.847Z" style="fill:rgb(3,4,4);fill-rule:nonzero;"/>
            <path d="M351.957,84.917L346.926,84.917L346.926,80.809L352.795,80.809L352.795,79.535L345.317,79.535L345.317,91.457L346.926,91.457L346.926,86.192L351.957,86.192L351.957,84.917Z" style="fill:rgb(3,4,4);fill-rule:nonzero;"/>
            <path d="M363.673,84.448C363.673,82.989 363.221,81.765 362.315,80.809C361.41,79.854 360.236,79.367 358.794,79.367C357.402,79.367 356.279,79.854 355.407,80.809C354.535,81.782 354.099,82.989 354.099,84.448L354.099,86.561C354.099,88.019 354.535,89.227 355.407,90.182C356.279,91.155 357.402,91.624 358.794,91.624C360.236,91.624 361.41,91.155 362.315,90.182C363.221,89.227 363.673,88.019 363.673,86.561L363.673,84.448ZM362.064,86.561C362.064,87.667 361.762,88.573 361.175,89.26C360.588,89.964 359.8,90.317 358.794,90.317C357.855,90.317 357.117,89.964 356.547,89.26C355.994,88.556 355.709,87.667 355.709,86.561L355.709,84.431C355.709,83.324 355.994,82.436 356.547,81.731C357.117,81.044 357.855,80.692 358.794,80.692C359.8,80.692 360.588,81.044 361.175,81.731C361.762,82.436 362.064,83.324 362.064,84.431L362.064,86.561Z" style="fill:rgb(3,4,4);fill-rule:nonzero;"/>
            <path d="M370.374,86.292C371.011,86.292 371.514,86.494 371.883,86.879C372.268,87.265 372.453,87.785 372.453,88.439L372.453,89.528C372.453,89.914 372.486,90.283 372.537,90.635C372.604,91.004 372.738,91.272 372.956,91.457L374.616,91.457L374.616,91.256C374.415,91.071 374.264,90.836 374.18,90.535C374.096,90.249 374.063,89.914 374.063,89.545L374.063,88.422C374.063,87.718 373.912,87.131 373.627,86.644C373.342,86.175 372.872,85.823 372.218,85.605C372.838,85.337 373.291,84.984 373.61,84.532C373.928,84.079 374.096,83.542 374.096,82.939C374.096,81.832 373.744,80.994 373.056,80.407C372.369,79.837 371.38,79.552 370.072,79.552L365.997,79.552L365.997,91.457L367.607,91.457L367.607,86.292L370.374,86.292ZM367.607,80.809L370.072,80.809C370.893,80.809 371.514,80.994 371.899,81.363C372.285,81.732 372.486,82.251 372.486,82.922C372.486,83.626 372.285,84.163 371.883,84.498C371.48,84.85 370.826,85.018 369.904,85.018L367.607,85.018L367.607,80.809Z" style="fill:rgb(3,4,4);fill-rule:nonzero;"/>
            <path d="M385.562,91.457C386.769,91.457 387.725,91.172 388.446,90.585C389.15,90.015 389.502,89.176 389.502,88.086C389.502,87.315 389.284,86.661 388.815,86.091C388.362,85.521 387.742,85.186 386.97,85.068C387.49,84.85 387.909,84.548 388.228,84.146C388.546,83.727 388.697,83.274 388.697,82.754C388.697,81.681 388.345,80.876 387.641,80.34C386.937,79.803 385.964,79.535 384.723,79.535L380.833,79.535L380.833,91.457L385.562,91.457ZM385.478,85.856L385.578,85.856C386.283,85.89 386.853,86.108 387.255,86.51C387.674,86.913 387.876,87.449 387.876,88.103C387.876,88.774 387.674,89.294 387.272,89.646C386.87,90.015 386.3,90.199 385.562,90.199L382.443,90.199L382.443,85.856L385.478,85.856ZM382.443,80.809L384.723,80.809C385.495,80.809 386.065,80.96 386.484,81.279C386.886,81.597 387.088,82.084 387.088,82.721C387.088,83.324 386.903,83.777 386.517,84.113C386.149,84.431 385.662,84.599 385.059,84.599L382.443,84.599L382.443,80.809Z" style="fill:rgb(3,4,4);fill-rule:nonzero;"/>
            <path d="M398.67,79.535L398.67,87.449C398.67,88.372 398.402,89.076 397.848,89.596C397.295,90.115 396.591,90.367 395.719,90.367C394.897,90.367 394.227,90.115 393.707,89.596C393.187,89.076 392.919,88.372 392.919,87.449L392.919,79.535L391.309,79.535L391.309,87.449C391.309,88.757 391.711,89.78 392.55,90.518C393.371,91.256 394.428,91.624 395.719,91.624C397.06,91.624 398.15,91.256 399.005,90.518C399.861,89.78 400.28,88.757 400.28,87.449L400.28,79.535L398.67,79.535Z" style="fill:rgb(3,4,4);fill-rule:nonzero;"/>
            <path d="M408.525,89.847C408.089,90.199 407.486,90.367 406.714,90.367C405.993,90.367 405.356,90.166 404.786,89.763C404.216,89.344 403.931,88.774 403.931,88.019L402.405,88.019L402.388,88.07C402.355,89.16 402.791,90.015 403.663,90.669C404.551,91.306 405.558,91.624 406.714,91.624C407.939,91.624 408.911,91.339 409.666,90.753C410.437,90.166 410.806,89.394 410.806,88.439C410.806,87.55 410.487,86.795 409.867,86.192C409.246,85.588 408.324,85.135 407.117,84.817C406.128,84.549 405.423,84.247 404.987,83.911C404.535,83.559 404.317,83.123 404.317,82.603C404.317,82.017 404.518,81.547 404.92,81.178C405.323,80.809 405.91,80.625 406.664,80.625C407.385,80.625 408.006,80.86 408.475,81.296C408.945,81.732 409.179,82.302 409.179,82.972L410.722,82.972L410.739,82.922C410.772,81.983 410.403,81.145 409.666,80.44C408.911,79.719 407.905,79.367 406.664,79.367C405.49,79.367 404.535,79.669 403.814,80.29C403.076,80.927 402.707,81.698 402.707,82.637C402.707,83.509 403.042,84.247 403.73,84.834C404.417,85.42 405.356,85.856 406.564,86.158C407.536,86.41 408.224,86.728 408.609,87.097C408.995,87.466 409.196,87.919 409.196,88.455C409.196,89.042 408.978,89.512 408.525,89.847Z" style="fill:rgb(3,4,4);fill-rule:nonzero;"/>
            <rect x="413.259" y="79.535" width="1.61" height="11.922" style="fill:rgb(3,4,4);fill-rule:nonzero;"/>
            <path d="M426.853,79.535L425.227,79.535L425.227,88.623L425.177,88.64L419.442,79.535L417.832,79.535L417.832,91.457L419.442,91.457L419.442,82.369L419.492,82.352L425.227,91.457L426.853,91.457L426.853,79.535Z" style="fill:rgb(3,4,4);fill-rule:nonzero;"/>
            <path d="M436.144,84.666L431.248,84.666L431.248,80.809L436.898,80.809L436.898,79.535L429.638,79.535L429.638,91.457L436.982,91.457L436.982,90.199L431.248,90.199L431.248,85.923L436.144,85.923L436.144,84.666Z" style="fill:rgb(3,4,4);fill-rule:nonzero;"/>
            <path d="M444.574,89.847C444.138,90.199 443.535,90.367 442.763,90.367C442.042,90.367 441.405,90.166 440.835,89.763C440.265,89.344 439.98,88.774 439.98,88.019L438.454,88.019L438.437,88.07C438.404,89.16 438.84,90.015 439.712,90.669C440.6,91.306 441.606,91.625 442.763,91.625C443.987,91.625 444.96,91.339 445.714,90.753C446.486,90.166 446.855,89.394 446.855,88.439C446.855,87.55 446.536,86.795 445.916,86.192C445.295,85.588 444.373,85.135 443.166,84.817C442.176,84.549 441.472,84.247 441.036,83.911C440.584,83.559 440.366,83.123 440.366,82.603C440.366,82.017 440.567,81.547 440.969,81.178C441.372,80.809 441.959,80.625 442.713,80.625C443.434,80.625 444.054,80.86 444.524,81.296C444.993,81.732 445.228,82.302 445.228,82.972L446.771,82.972L446.788,82.922C446.821,81.983 446.452,81.145 445.714,80.44C444.96,79.719 443.954,79.367 442.713,79.367C441.539,79.367 440.584,79.669 439.863,80.29C439.125,80.927 438.756,81.698 438.756,82.637C438.756,83.509 439.091,84.247 439.779,84.834C440.466,85.42 441.405,85.856 442.612,86.158C443.585,86.41 444.272,86.728 444.658,87.097C445.044,87.466 445.245,87.919 445.245,88.455C445.245,89.042 445.027,89.512 444.574,89.847Z" style="fill:rgb(3,4,4);fill-rule:nonzero;"/>
            <path d="M454.824,89.847C454.388,90.199 453.785,90.367 453.013,90.367C452.292,90.367 451.655,90.166 451.085,89.763C450.515,89.344 450.23,88.774 450.23,88.019L448.704,88.019L448.687,88.07C448.654,89.16 449.09,90.015 449.962,90.669C450.85,91.306 451.856,91.625 453.013,91.625C454.237,91.625 455.21,91.339 455.965,90.753C456.736,90.166 457.105,89.394 457.105,88.439C457.105,87.55 456.786,86.795 456.166,86.192C455.545,85.588 454.623,85.135 453.416,84.817C452.427,84.549 451.722,84.247 451.286,83.911C450.834,83.559 450.616,83.123 450.616,82.603C450.616,82.017 450.817,81.547 451.219,81.178C451.622,80.809 452.209,80.625 452.963,80.625C453.684,80.625 454.304,80.86 454.774,81.296C455.243,81.732 455.478,82.302 455.478,82.972L457.021,82.972L457.038,82.922C457.071,81.983 456.702,81.145 455.965,80.44C455.21,79.719 454.204,79.367 452.963,79.367C451.789,79.367 450.834,79.669 450.113,80.29C449.375,80.927 449.006,81.698 449.006,82.637C449.006,83.509 449.341,84.247 450.029,84.834C450.716,85.42 451.655,85.856 452.862,86.158C453.835,86.41 454.522,86.728 454.908,87.097C455.294,87.466 455.495,87.919 455.495,88.455C455.495,89.042 455.277,89.512 454.824,89.847Z" style="fill:rgb(3,4,4);fill-rule:nonzero;"/>
        </g>
    </g>
</svg>
