<!-- Generator: Adobe Illustrator 22.1.0, SVG Export Plug-In  -->
<svg version="1.1"
	 xmlns="http://www.w3.org/2000/svg" xmlns:xlink="http://www.w3.org/1999/xlink" xmlns:a="http://ns.adobe.com/AdobeSVGViewerExtensions/3.0/"
	 x="0px" y="0px" width="694.772px" height="127.67px" viewBox="0 0 694.772 127.67"
	 style="enable-background:new 0 0 694.772 127.67;" xml:space="preserve">
<style type="text/css">
	.st0{fill:#E3E2E5;}
	.st1{fill:#66F621;}
</style>
<defs>
</defs>
<g>
	<path class="st0" d="M199.13,56.922h-13.989V44.204h13.989V23.346h17.551v20.858h18.314v12.717h-18.314v30.777
		c0,7.758,0.381,11.955,6.359,11.955c4.324,0,8.394-0.127,12.59-0.254v12.717c-4.705,0.636-8.139,1.018-13.481,1.018
		c-21.366,0-23.02-7.631-23.02-20.349V56.922z"/>
	<path class="st0" d="M323.086,44.204h17.551v38.408c0,10.301,2.417,18.059,17.423,18.059c7.758,0,20.477-5.087,20.477-19.458
		V44.204h17.551v67.405h-17.551v-9.411h-0.255c-5.722,7.249-14.625,11.954-26.58,11.954c-14.498,0-28.615-5.214-28.615-24.927
		V44.204z"/>
	<path class="st0" d="M428.016,82.357c0.381,7.504,5.468,19.077,22.892,19.077c11.574,0,16.661-4.07,20.095-9.666h19.077
		c-3.816,7.504-12.973,22.384-38.663,22.384c-30.396,0-41.715-17.678-41.715-35.609c0-22.512,16.66-36.883,40.57-36.883
		c29.887,0,41.333,18.441,41.333,38.154v2.543H428.016z M473.291,71.166c-2.162-13.481-14.117-17.551-22.765-17.551
		c-8.139,0-19.585,3.816-22.511,17.551H473.291z"/>
	<path class="st0" d="M509.392,19.276h17.551v34.593h0.255c5.214-8.139,15.261-11.446,25.817-11.446
		c25.69,0,36.882,18.695,36.882,35.737c0,17.296-11.192,35.991-36.882,35.991c-13.99,0-24.545-7.757-25.817-11.827h-0.255v9.284
		h-17.551V19.276z M526.179,78.161c0,11.446,6.233,22.511,22.639,22.511c16.533,0,22.765-11.065,22.765-22.511
		c0-11.192-6.232-22.257-22.765-22.257C532.412,55.904,526.179,66.969,526.179,78.161z"/>
	<path class="st0" d="M276.043,57.304h-0.255v-13.1h-17.551h-9.079v12.717h9.079v54.687h17.551V79.051
		c0-15.643,12.591-20.349,21.493-20.349c3.052,0,6.36,0.127,11.192,1.654V43.059c-2.289-0.382-4.324-0.636-6.995-0.636
		C287.997,42.423,280.748,49.672,276.043,57.304z"/>
	<polygon class="st0" points="629.151,44.204 611.6,44.204 602.521,44.204 602.521,56.921 611.6,56.921 611.6,98.891 
		602.521,98.891 602.521,111.609 611.6,111.609 628.994,111.609 629.151,111.609 638.073,111.609 638.073,98.891 629.151,98.891 	
		"/>
	<rect x="615.836" y="19.276" class="st0" width="22.394" height="14.244"/>
	<path class="st0" d="M658.271,56.922h-13.989V44.204h13.989V19.276h17.552v24.928h18.314v12.717h-18.314v30.777
		c0,7.758,0.381,11.955,6.359,11.955c4.324,0,8.394-0.127,12.59-0.254v12.717c-4.705,0.636-8.139,1.018-13.481,1.018
		c-21.366,0-23.02-7.631-23.02-20.349V56.922z"/>
	<g>
		<path class="st1" d="M83.468,43.606c-0.575,0.331-1.121,0.698-1.651,1.083c-4.754,3.458-7.624,9-7.623,14.955v0.003v0.01l0,0.013
			l0.086,68.001c2.607-3.508,6.026-8.173,9.885-13.6c8.638-12.144,19.456-28.068,28.127-43.088
			c8.235-14.262,16.121-30.392,22.162-43.486c3.259-7.063,5.975-13.228,7.933-17.764c0.008-0.019,0.017-0.04,0.025-0.059
			L83.468,43.606z"/>
		<path class="st1" d="M139.517,4.568c-4.334-0.502-10.061-1.128-16.657-1.754C108.024,1.405,88.825-0.001,71.481,0
			C55.013-0.001,37.1,1.235,22.741,2.55C14.962,3.263,8.239,3.997,3.327,4.57l55.257,31.995l3.394,1.954
			c0.082,0.047,0.158,0.1,0.239,0.148c2.861,1.649,6.049,2.474,9.242,2.474c2.527,0,5.05-0.525,7.412-1.558
			c0.633-0.277,1.256-0.582,1.863-0.933L139.58,4.575C139.558,4.573,139.539,4.57,139.517,4.568z"/>
		<path class="st1" d="M68.325,59.647c0-6.528-3.443-12.561-9.041-15.895c-0.013-0.008-0.027-0.014-0.041-0.022l-3.639-2.107
			L0,9.426c0.036,0.085,0.07,0.162,0.107,0.248c1.718,3.981,4.026,9.231,6.775,15.246c6.174,13.512,14.561,30.85,23.345,46.063l0,0
			c8.128,14.081,18.144,28.958,26.482,40.768c4.53,6.418,8.557,11.919,11.529,15.919l0.086-68L68.325,59.647z"/>
	</g>
</g>
</svg>