<?xml version="1.0" encoding="UTF-8" standalone="no"?><!DOCTYPE svg PUBLIC "-//W3C//DTD SVG 1.1//EN" "http://www.w3.org/Graphics/SVG/1.1/DTD/svg11.dtd"><svg width="100%" height="100%" viewBox="0 0 200 200" version="1.1" xmlns="http://www.w3.org/2000/svg" xmlns:xlink="http://www.w3.org/1999/xlink" xml:space="preserve" xmlns:serif="http://www.serif.com/" style="fill-rule:evenodd;clip-rule:evenodd;stroke-linejoin:round;stroke-miterlimit:1.41421;"><path d="M85.29,6.001l-11.327,6.604l84.8,49.009l25.929,-15.037l-69.313,-40.276c-4.502,-2.595 -10.033,-3.801 -15.423,-3.801c-5.432,-0.004 -10.719,1.226 -14.666,3.501Zm-40.615,23.619l84.807,49.022l25.847,-15.017l-84.803,-49.033l-25.851,15.028Zm-15.349,8.918c-7.865,4.534 -7.971,11.461 -0.059,16.035l70.815,41.171l25.982,-15.135l-84.788,-49.025l-11.95,6.954Zm88.462,51.462c-9.245,5.393 -15.738,15.072 -15.738,25.8l0,13.838l84.586,-49.179l0,-30.491l-68.848,40.032Zm-104.259,-22.942l0,30.125l84.582,49.183l0.004,-47.22l-70.882,-41.199c-2.109,-1.218 -4.069,-1.782 -5.811,-1.782c-4.775,0 -7.893,4.246 -7.893,10.893Zm0.023,64.567c0,11.606 6.486,20.493 14.395,25.054l70.168,40.821l0,-47.204l-84.586,-49.178l0.023,30.507Zm88.498,1.947l0,29.51l55.341,-32.183l0,-29.446l-55.341,32.119Zm0,33.445l0,30.483l26.02,-15.119l0,-30.437l-26.02,15.073Z" style="fill:url(#_Linear1);fill-rule:nonzero;"/><defs><linearGradient id="_Linear1" x1="0" y1="0" x2="1" y2="0" gradientUnits="userSpaceOnUse" gradientTransform="matrix(424.943,0,0,424.943,13.5286,100.001)"><stop offset="0" style="stop-color:#2e8eb0;stop-opacity:1"/><stop offset="1" style="stop-color:#112147;stop-opacity:1"/></linearGradient></defs></svg>