<?xml version="1.0" encoding="UTF-8" standalone="no"?>
<!DOCTYPE svg PUBLIC "-//W3C//DTD SVG 1.1//EN" "http://www.w3.org/Graphics/SVG/1.1/DTD/svg11.dtd">
<svg width="100%" height="100%" viewBox="0 0 430 200" version="1.1" xmlns="http://www.w3.org/2000/svg" xmlns:xlink="http://www.w3.org/1999/xlink" xml:space="preserve" xmlns:serif="http://www.serif.com/" style="fill-rule:evenodd;clip-rule:evenodd;stroke-linejoin:round;stroke-miterlimit:1.41421;">
    <g transform="matrix(424.943,-1.68286e-29,1.68286e-29,-424.943,2.52863,99.9946)">
        <path d="M0.169,0.221L0.142,0.206L0.342,0.09L0.403,0.126L0.24,0.22C0.229,0.227 0.216,0.229 0.203,0.229C0.191,0.229 0.178,0.227 0.169,0.221ZM0.073,0.166L0.273,0.05L0.334,0.086L0.134,0.201L0.073,0.166ZM0.037,0.145C0.019,0.134 0.018,0.118 0.037,0.107L0.204,0.01L0.265,0.046L0.065,0.161L0.037,0.145ZM0.591,0.13L0.591,0.065L0.605,0.065L0.605,0.091C0.605,0.095 0.608,0.099 0.612,0.099C0.617,0.099 0.619,0.095 0.619,0.091L0.619,0.065L0.633,0.065L0.633,0.093C0.633,0.103 0.628,0.111 0.616,0.111C0.612,0.111 0.607,0.11 0.605,0.107L0.605,0.13L0.591,0.13ZM0.509,0.129L0.51,0.065L0.55,0.065L0.55,0.078L0.524,0.078L0.524,0.091L0.548,0.091L0.548,0.103L0.524,0.103L0.524,0.115L0.55,0.115L0.55,0.129L0.509,0.129ZM0.564,0.123L0.564,0.117C0.564,0.113 0.562,0.11 0.557,0.11L0.555,0.11L0.555,0.098L0.563,0.098L0.563,0.079C0.563,0.07 0.569,0.064 0.578,0.064C0.583,0.064 0.585,0.065 0.585,0.065L0.585,0.077C0.585,0.077 0.583,0.076 0.582,0.076C0.579,0.076 0.577,0.077 0.577,0.081L0.577,0.098L0.585,0.098L0.585,0.11L0.577,0.11L0.577,0.123L0.564,0.123ZM0.245,0.024C0.224,0.011 0.208,-0.012 0.208,-0.037L0.208,-0.07L0.407,0.046L0.407,0.118L0.245,0.024ZM0.884,0.112C0.878,0.112 0.874,0.11 0.87,0.105C0.868,0.109 0.863,0.112 0.857,0.112C0.852,0.112 0.846,0.109 0.844,0.105L0.844,0.11L0.831,0.11L0.831,0.065L0.845,0.065L0.845,0.091C0.845,0.095 0.847,0.099 0.852,0.099C0.857,0.099 0.859,0.096 0.859,0.091L0.859,0.065L0.873,0.065L0.873,0.091C0.873,0.095 0.875,0.099 0.88,0.099C0.885,0.099 0.887,0.096 0.887,0.091L0.887,0.065L0.901,0.065L0.901,0.095C0.901,0.107 0.892,0.112 0.884,0.112C0.884,0.112 0.884,0.112 0.884,0.112ZM0.748,0.111C0.736,0.111 0.725,0.102 0.725,0.088C0.725,0.073 0.736,0.064 0.749,0.064C0.76,0.064 0.767,0.07 0.769,0.078L0.758,0.081C0.757,0.078 0.754,0.075 0.749,0.075C0.744,0.075 0.739,0.079 0.739,0.084L0.77,0.084C0.77,0.084 0.77,0.087 0.77,0.088C0.77,0.103 0.762,0.111 0.748,0.111C0.748,0.111 0.748,0.111 0.748,0.111ZM0.748,0.101C0.754,0.101 0.757,0.096 0.757,0.093L0.739,0.093C0.739,0.096 0.742,0.101 0.748,0.101ZM0.663,0.111C0.651,0.111 0.64,0.102 0.641,0.088C0.641,0.073 0.652,0.064 0.664,0.064C0.675,0.064 0.682,0.07 0.685,0.078L0.673,0.081C0.672,0.078 0.669,0.075 0.664,0.075C0.659,0.075 0.654,0.079 0.654,0.084L0.685,0.084C0.685,0.084 0.685,0.086 0.685,0.088C0.685,0.103 0.677,0.111 0.663,0.111C0.663,0.111 0.663,0.111 0.663,0.111ZM0.663,0.1C0.67,0.1 0.672,0.096 0.672,0.093L0.654,0.093C0.654,0.096 0.657,0.1 0.663,0.1ZM0.718,0.11C0.715,0.11 0.709,0.109 0.707,0.104L0.707,0.11L0.693,0.11L0.693,0.065L0.707,0.065L0.707,0.085C0.707,0.094 0.712,0.097 0.717,0.097C0.719,0.097 0.72,0.097 0.722,0.096L0.722,0.11L0.718,0.11ZM0.806,0.11L0.806,0.085C0.806,0.08 0.803,0.077 0.799,0.077C0.794,0.077 0.791,0.08 0.791,0.085L0.791,0.11L0.778,0.11L0.778,0.082C0.778,0.072 0.784,0.064 0.795,0.064C0.799,0.064 0.804,0.066 0.807,0.07C0.807,0.069 0.807,0.066 0.807,0.065L0.82,0.065C0.82,0.066 0.82,0.069 0.82,0.073L0.82,0.11L0.806,0.11ZM0,0.078L0,0.007L0.199,-0.109L0.199,0.002L0.032,0.099C0.027,0.102 0.023,0.103 0.019,0.103C0.007,0.103 0,0.093 0,0.078ZM0.901,0.029C0.897,0.029 0.894,0.025 0.894,0.021C0.894,0.016 0.897,0.013 0.901,0.013C0.906,0.013 0.91,0.016 0.91,0.021C0.91,0.025 0.906,0.029 0.901,0.029C0.901,0.029 0.901,0.029 0.901,0.029ZM0.539,0.027C0.521,0.027 0.506,0.013 0.506,-0.007C0.506,-0.026 0.521,-0.04 0.539,-0.04C0.559,-0.04 0.568,-0.026 0.57,-0.017L0.556,-0.013C0.555,-0.018 0.55,-0.025 0.539,-0.025C0.53,-0.025 0.521,-0.018 0.521,-0.006C0.521,0.007 0.53,0.013 0.539,0.013C0.55,0.013 0.554,0.006 0.555,0.001L0.569,0.005C0.567,0.015 0.558,0.027 0.539,0.027C0.539,0.027 0.539,0.027 0.539,0.027ZM0.924,0.02L0.924,0.014C0.924,0.01 0.921,0.007 0.917,0.007L0.914,0.007L0.914,-0.005L0.922,-0.005L0.922,-0.024C0.922,-0.033 0.928,-0.038 0.937,-0.038C0.942,-0.038 0.944,-0.037 0.945,-0.037L0.945,-0.026C0.944,-0.026 0.942,-0.026 0.941,-0.026C0.938,-0.026 0.936,-0.025 0.936,-0.022L0.936,-0.005L0.945,-0.005L0.945,0.007L0.936,0.007L0.936,0.02L0.924,0.02ZM0.762,0.008C0.756,0.008 0.752,0.006 0.748,0.001C0.746,0.006 0.741,0.008 0.735,0.008C0.73,0.008 0.724,0.006 0.722,0.002L0.722,0.007L0.709,0.007L0.709,-0.038L0.723,-0.038L0.723,-0.012C0.723,-0.008 0.725,-0.004 0.73,-0.004C0.735,-0.004 0.737,-0.008 0.737,-0.012L0.737,-0.038L0.751,-0.038L0.751,-0.012C0.751,-0.008 0.753,-0.004 0.758,-0.004C0.763,-0.004 0.765,-0.008 0.765,-0.012L0.765,-0.038L0.779,-0.038L0.779,-0.009C0.779,0.003 0.77,0.008 0.762,0.008C0.762,0.008 0.762,0.008 0.762,0.008ZM0.868,0.008C0.863,0.008 0.858,0.006 0.855,0.002L0.855,0.007L0.842,0.007L0.842,-0.038L0.856,-0.038L0.856,-0.012C0.856,-0.008 0.859,-0.004 0.863,-0.004C0.868,-0.004 0.87,-0.008 0.87,-0.012L0.87,-0.038L0.884,-0.038L0.884,-0.01C0.884,0 0.879,0.008 0.868,0.008C0.868,0.008 0.868,0.008 0.868,0.008ZM0.682,0.008C0.675,0.008 0.671,0.006 0.668,0.001C0.665,0.005 0.661,0.008 0.654,0.008C0.649,0.008 0.644,0.006 0.641,0.002L0.641,0.007L0.628,0.007L0.628,-0.038L0.642,-0.038L0.642,-0.012C0.642,-0.008 0.645,-0.005 0.65,-0.005C0.654,-0.005 0.657,-0.008 0.657,-0.012L0.657,-0.038L0.67,-0.038L0.67,-0.012C0.67,-0.008 0.673,-0.005 0.678,-0.005C0.683,-0.005 0.685,-0.008 0.685,-0.012L0.685,-0.038L0.698,-0.038L0.698,-0.009C0.698,0.003 0.69,0.008 0.682,0.008C0.682,0.008 0.682,0.008 0.682,0.008ZM0.597,0.008C0.583,0.008 0.573,-0.002 0.573,-0.016C0.573,-0.03 0.583,-0.04 0.597,-0.04C0.61,-0.04 0.621,-0.03 0.62,-0.016C0.62,-0.002 0.61,0.008 0.597,0.008C0.597,0.008 0.597,0.008 0.597,0.008ZM0.587,-0.016C0.587,-0.008 0.592,-0.005 0.597,-0.005C0.602,-0.005 0.607,-0.008 0.607,-0.016C0.607,-0.023 0.602,-0.027 0.597,-0.027C0.597,-0.027 0.597,-0.027 0.597,-0.027C0.592,-0.027 0.587,-0.023 0.587,-0.016ZM0.985,0.007L0.976,-0.017L0.965,0.007L0.949,0.007L0.968,-0.032L0.958,-0.055L0.972,-0.055L1,0.007L0.985,0.007ZM0.895,0.007L0.895,-0.038L0.908,-0.038L0.908,0.007L0.895,0.007ZM0.817,0.007L0.817,-0.019C0.817,-0.023 0.814,-0.026 0.81,-0.026C0.805,-0.026 0.802,-0.023 0.802,-0.018L0.802,0.007L0.789,0.007L0.789,-0.021C0.789,-0.031 0.795,-0.039 0.806,-0.039C0.81,-0.039 0.815,-0.037 0.818,-0.033C0.818,-0.035 0.818,-0.037 0.818,-0.038L0.831,-0.038C0.831,-0.037 0.831,-0.034 0.831,-0.03L0.831,0.007L0.817,0.007ZM0,-0.074C0,-0.102 0.015,-0.123 0.034,-0.133L0.199,-0.229L0.199,-0.118L0,-0.003L0,-0.074ZM0.208,-0.079L0.208,-0.148L0.339,-0.073L0.339,-0.003L0.208,-0.079ZM0.692,-0.076L0.692,-0.1C0.691,-0.098 0.688,-0.095 0.68,-0.095C0.667,-0.095 0.658,-0.105 0.658,-0.119C0.658,-0.133 0.668,-0.142 0.681,-0.142C0.686,-0.142 0.691,-0.14 0.693,-0.137C0.693,-0.139 0.693,-0.141 0.693,-0.141L0.706,-0.141C0.706,-0.14 0.706,-0.137 0.706,-0.133L0.706,-0.076L0.692,-0.076ZM0.672,-0.119C0.672,-0.111 0.677,-0.108 0.682,-0.108C0.688,-0.108 0.692,-0.111 0.692,-0.119C0.692,-0.126 0.688,-0.13 0.682,-0.13C0.682,-0.13 0.682,-0.13 0.682,-0.13C0.677,-0.13 0.672,-0.126 0.672,-0.119ZM0.51,-0.078L0.51,-0.142L0.524,-0.142L0.524,-0.118L0.548,-0.118L0.548,-0.105L0.524,-0.105L0.524,-0.091L0.551,-0.091L0.551,-0.077L0.51,-0.078ZM0.635,-0.095C0.63,-0.095 0.625,-0.097 0.622,-0.102L0.622,-0.097L0.609,-0.097L0.609,-0.141L0.623,-0.141L0.623,-0.116C0.623,-0.111 0.626,-0.108 0.63,-0.108C0.635,-0.108 0.637,-0.111 0.637,-0.116L0.637,-0.141L0.651,-0.141L0.651,-0.113C0.651,-0.103 0.646,-0.095 0.635,-0.095C0.635,-0.095 0.635,-0.095 0.635,-0.095ZM0.584,-0.097L0.584,-0.122C0.584,-0.127 0.581,-0.13 0.577,-0.13C0.572,-0.13 0.569,-0.126 0.569,-0.122L0.569,-0.097L0.556,-0.097L0.556,-0.125C0.556,-0.135 0.562,-0.142 0.573,-0.142C0.577,-0.142 0.582,-0.141 0.585,-0.137C0.585,-0.138 0.585,-0.141 0.585,-0.141L0.598,-0.141C0.598,-0.141 0.598,-0.137 0.598,-0.133L0.598,-0.097L0.584,-0.097ZM0.208,-0.158L0.208,-0.229L0.27,-0.194L0.27,-0.122L0.208,-0.158Z" style="fill:url(#_Linear1);fill-rule:nonzero;"/>
    </g>
    <defs>
        <linearGradient id="_Linear1" x1="0" y1="0" x2="1" y2="0" gradientUnits="userSpaceOnUse" gradientTransform="matrix(1,0,0,-1,0,-1.61321e-05)"><stop offset="0" style="stop-color:rgb(46,142,176);stop-opacity:1"/><stop offset="1" style="stop-color:rgb(17,33,71);stop-opacity:1"/></linearGradient>
    </defs>
</svg>
