<?xml version="1.0" encoding="UTF-8" standalone="no"?>
<!DOCTYPE svg PUBLIC "-//W3C//DTD SVG 1.1//EN" "http://www.w3.org/Graphics/SVG/1.1/DTD/svg11.dtd">
<svg width="100%" height="100%" viewBox="0 0 260 28" version="1.1" xmlns="http://www.w3.org/2000/svg" xmlns:xlink="http://www.w3.org/1999/xlink" xml:space="preserve" xmlns:serif="http://www.serif.com/" style="fill-rule:evenodd;clip-rule:evenodd;stroke-linejoin:round;stroke-miterlimit:1.41421;">
    <g transform="matrix(1,0,0,1,1.74218,0.991071)">
        <path d="M34.239,0.04L24.68,25.595L22.56,25.595L16.96,9.478L16.76,9.478L10.76,25.595L8.64,25.595L0,0.04L2.12,0.04L2.6,2.16L9.72,23.076L9.92,23.076L16.04,6.599L13.76,0.04L15.92,0.04L16.48,2.32L23.6,23.076L23.84,23.076L31.639,2.24L32.199,0.04L34.239,0.04ZM45.359,5.799L52.639,25.595L50.599,25.595L50.159,23.795L48.679,19.836L39.239,19.836L37.679,23.715L37.159,25.595L35.159,25.595L43.119,5.799L45.359,5.799ZM43.919,18.236L48.079,18.196L44.279,7.918L44.079,7.918L39.919,18.196L43.919,18.236ZM63.359,5.679C64.906,5.679 66.399,5.986 67.839,6.599L67.519,8.518L67.159,8.598C65.826,7.692 64.492,7.239 63.159,7.239C61.826,7.239 60.766,7.605 59.979,8.338C59.192,9.072 58.799,9.891 58.799,10.798C58.799,11.678 59.152,12.384 59.859,12.918C60.566,13.451 61.639,14.024 63.079,14.637C64.279,15.197 65.226,15.684 65.919,16.097C66.612,16.51 67.212,17.057 67.719,17.737C68.226,18.416 68.479,19.25 68.479,20.236C68.479,21.223 68.206,22.136 67.659,22.976C67.112,23.815 66.332,24.489 65.319,24.995C64.306,25.502 63.132,25.755 61.799,25.755C60.892,25.755 59.959,25.642 58.999,25.415C58.039,25.188 57.159,24.849 56.359,24.395L56.559,22.356L56.839,22.236C57.532,22.876 58.352,23.362 59.299,23.695C60.246,24.029 61.146,24.195 61.999,24.195C63.332,24.195 64.419,23.829 65.259,23.096C66.099,22.362 66.519,21.503 66.519,20.516C66.519,19.583 66.166,18.843 65.459,18.296C64.752,17.75 63.652,17.13 62.159,16.437C61.012,15.904 60.086,15.43 59.379,15.017C58.672,14.604 58.072,14.064 57.579,13.397C57.086,12.731 56.839,11.918 56.839,10.958C56.839,9.971 57.112,9.078 57.659,8.278C58.206,7.479 58.972,6.845 59.959,6.379C60.946,5.912 62.079,5.679 63.359,5.679ZM93.038,5.799L95.158,25.595L93.358,25.595L92.798,19.556L91.558,9.078L91.358,9.078L85.079,23.236L83.399,23.236L77.359,9.078L77.119,9.078L75.919,19.396L75.319,25.595L73.559,25.595L75.799,5.799L78.119,5.799L79.239,8.838L84.239,20.596L84.399,20.596L89.678,8.598L90.798,5.799L93.038,5.799ZM127.878,0L127.758,18.316L127.758,25.595L125.638,25.595L110.998,3.519L110.798,3.519L110.758,17.397L110.798,25.595L108.878,25.595L108.958,17.997L108.918,0.04L111.078,0.04L125.678,22.116L125.878,22.116L125.918,0.16L127.878,0ZM147.157,23.875L147.357,24.075L147.117,25.595L135.838,25.595L135.918,19.596L135.838,5.799L147.117,5.799L147.277,6.039L147.077,7.559L142.158,7.439L137.838,7.439L137.798,14.557L141.878,14.597L145.398,14.517L145.518,14.757L145.358,16.317L141.718,16.237L137.758,16.277L137.758,19.436L137.798,23.955L141.878,23.955L147.157,23.875ZM164.637,5.799L164.757,6.039L164.597,7.639L161.037,7.479L158.557,7.479L158.477,19.436L158.557,25.595L156.597,25.595L156.637,19.596L156.597,7.479L154.157,7.479L150.517,7.639L150.357,7.439L150.517,5.799L164.637,5.799ZM195.877,5.799L188.117,25.595L186.037,25.595L181.597,13.597L181.437,13.597L176.637,25.595L174.557,25.595L167.597,5.799L169.637,5.799L170.037,7.599L175.637,23.276L175.837,23.276L180.717,10.838L178.917,5.799L180.997,5.799L181.437,7.759L187.037,23.276L187.277,23.276L193.437,7.679L193.917,5.799L195.877,5.799ZM208.196,5.599C211.023,5.599 213.196,6.445 214.716,8.138C216.236,9.831 216.996,12.224 216.996,15.317C216.996,18.676 216.19,21.263 214.576,23.076C212.963,24.889 210.676,25.795 207.716,25.795C204.89,25.795 202.71,24.929 201.177,23.196C199.643,21.463 198.877,19.01 198.877,15.837C198.877,12.558 199.683,10.031 201.297,8.258C202.91,6.485 205.21,5.599 208.196,5.599ZM208.036,7.319C203.29,7.319 200.917,10.078 200.917,15.597C200.917,21.276 203.21,24.115 207.796,24.115C210.143,24.115 211.93,23.409 213.156,21.996C214.383,20.583 214.996,18.463 214.996,15.637C214.996,10.091 212.676,7.319 208.036,7.319ZM230.636,17.517C232.316,20.049 234.196,22.582 236.276,25.115L236.276,25.395C235.769,25.608 235.183,25.755 234.516,25.835L234.156,25.635C232.183,22.969 230.449,20.409 228.956,17.957L224.876,17.997L224.876,19.436L224.916,25.595L222.956,25.595L223.036,19.596L222.956,5.799L228.796,5.759C230.823,5.759 232.383,6.245 233.476,7.219C234.569,8.192 235.116,9.571 235.116,11.358C235.116,12.771 234.729,14.011 233.956,15.077C233.183,16.144 232.076,16.957 230.636,17.517ZM224.956,7.439L224.876,16.317L229.036,16.397C230.369,16.05 231.376,15.464 232.056,14.637C232.736,13.811 233.076,12.771 233.076,11.518C233.076,8.905 231.543,7.519 228.476,7.359L224.956,7.439ZM244.236,5.799L244.156,19.436L244.196,25.595L242.236,25.595L242.316,19.596L242.236,5.799L244.236,5.799ZM255.996,5.799L246.996,15.077C249.796,18.41 252.969,21.769 256.516,25.155L256.476,25.435C256.076,25.622 255.476,25.768 254.676,25.875L254.356,25.755C250.756,22.102 247.556,18.583 244.756,15.197L244.756,15.037L252.196,7.439L253.556,5.799L255.996,5.799Z" style="fill:rgb(82,28,1);fill-rule:nonzero;"/>
    </g>
</svg>
