<?xml version="1.0" encoding="UTF-8" standalone="no"?>
<!DOCTYPE svg PUBLIC "-//W3C//DTD SVG 1.1//EN" "http://www.w3.org/Graphics/SVG/1.1/DTD/svg11.dtd">
<svg width="100%" height="100%" viewBox="0 0 1909 400" version="1.1" xmlns="http://www.w3.org/2000/svg" xmlns:xlink="http://www.w3.org/1999/xlink" xml:space="preserve" xmlns:serif="http://www.serif.com/" style="fill-rule:evenodd;clip-rule:evenodd;stroke-linejoin:round;stroke-miterlimit:1.41421;">
    <g transform="matrix(4.16667,0,0,4.16667,0,0)">
        <g transform="matrix(1,0,0,1,0,3.12)">
            <path d="M74.172,82.085L74.184,82.085L74.172,82.085ZM0.973,48.031L27.731,85.925L73.871,81.658L93.25,39.496L66.493,1.604L20.353,5.868L0.973,48.031ZM27.514,86.853C27.367,86.853 27.229,86.784 27.144,86.665L0.083,48.342C-0.008,48.208 -0.026,48.037 0.041,47.888L19.64,5.254C19.708,5.107 19.849,5.005 20.011,4.991L66.669,0.676C66.83,0.65 66.987,0.733 67.081,0.865L94.14,39.185C94.234,39.32 94.252,39.492 94.184,39.637L74.583,82.277C74.517,82.424 74.376,82.524 74.216,82.538L27.554,86.853L27.514,86.853Z" style="fill:rgb(3,4,4);fill-rule:nonzero;"/>
        </g>
        <g transform="matrix(1,0,0,1,0,3.12)">
            <path d="M20.279,5.745L20.311,47.725L27.677,86.045L65.786,64.031L93.395,39.48L56.099,16.279L20.279,5.745ZM27.352,86.758L19.861,47.765L19.825,5.139L56.312,15.88L94.147,39.416L66.049,64.393L27.352,86.758Z" style="fill:rgb(3,4,4);fill-rule:nonzero;"/>
        </g>
        <g transform="matrix(1,0,0,1,0,3.12)">
            <path d="M58.271,16.308C58.271,17.059 57.661,17.669 56.912,17.669C56.163,17.669 55.553,17.059 55.553,16.308C55.553,15.557 56.163,14.947 56.912,14.947C57.661,14.947 58.271,15.557 58.271,16.308Z" style="fill:rgb(3,4,4);fill-rule:nonzero;"/>
        </g>
        <g transform="matrix(1,0,0,1,0,3.12)">
            <path d="M56.912,16.226L56.828,16.308C56.828,16.354 56.864,16.39 56.912,16.39L56.912,16.226ZM56.912,19.111C55.368,19.111 54.11,17.854 54.11,16.308C54.11,14.764 55.368,13.503 56.912,13.503C58.456,13.503 59.711,14.764 59.711,16.308C59.711,17.854 58.456,19.111 56.912,19.111Z" style="fill:rgb(3,4,4);fill-rule:nonzero;"/>
        </g>
        <g transform="matrix(1,0,0,1,0,3.12)">
            <path d="M67.342,64.144C67.342,64.896 66.734,65.505 65.983,65.505C65.233,65.505 64.624,64.896 64.624,64.144C64.624,63.393 65.233,62.784 65.983,62.784C66.734,62.784 67.342,63.393 67.342,64.144Z" style="fill:rgb(3,4,4);fill-rule:nonzero;"/>
        </g>
        <g transform="matrix(1,0,0,1,0,3.12)">
            <path d="M65.982,64.063L65.899,64.144C65.899,64.19 65.935,64.226 65.982,64.226L65.982,64.063ZM65.982,66.948C64.439,66.948 63.181,65.691 63.181,64.144C63.181,62.6 64.439,61.339 65.982,61.339C67.527,61.339 68.782,62.6 68.782,64.144C68.782,65.691 67.527,66.948 65.982,66.948Z" style="fill:rgb(3,4,4);fill-rule:nonzero;"/>
        </g>
        <g transform="matrix(1,0,0,1,0,3.12)">
            <path d="M29.204,86.403C29.204,87.154 28.596,87.763 27.845,87.763C27.096,87.763 26.486,87.154 26.486,86.403C26.486,85.652 27.096,85.041 27.845,85.041C28.596,85.041 29.204,85.652 29.204,86.403Z" style="fill:rgb(3,4,4);fill-rule:nonzero;"/>
        </g>
        <g transform="matrix(1,0,0,1,0,3.12)">
            <path d="M27.845,86.321L27.762,86.401C27.762,86.445 27.799,86.48 27.845,86.48L27.845,86.321ZM27.845,89.204C26.301,89.204 25.046,87.949 25.046,86.401C25.046,84.855 26.301,83.597 27.845,83.597C29.389,83.597 30.647,84.855 30.647,86.401C30.647,87.949 29.389,89.204 27.845,89.204Z" style="fill:rgb(3,4,4);fill-rule:nonzero;"/>
        </g>
        <g transform="matrix(1,0,0,1,0,3.12)">
            <path d="M21.41,48.177C21.41,48.928 20.803,49.538 20.051,49.538C19.302,49.538 18.692,48.928 18.692,48.177C18.692,47.425 19.302,46.816 20.051,46.816C20.803,46.816 21.41,47.425 21.41,48.177Z" style="fill:rgb(3,4,4);fill-rule:nonzero;"/>
        </g>
        <g transform="matrix(1,0,0,1,0,3.12)">
            <path d="M20.052,48.095L19.968,48.176C19.968,48.222 20.006,48.258 20.052,48.258L20.052,48.095ZM20.052,50.979C18.507,50.979 17.252,49.722 17.252,48.176C17.252,46.632 18.507,45.373 20.052,45.373C21.596,45.373 22.853,46.632 22.853,48.176C22.853,49.722 21.596,50.979 20.052,50.979Z" style="fill:rgb(3,4,4);fill-rule:nonzero;"/>
        </g>
        <g transform="matrix(1,0,0,1,0,3.12)">
            <path d="M95.13,39.516C95.13,40.268 94.522,40.877 93.771,40.877C93.022,40.877 92.412,40.268 92.412,39.516C92.412,38.765 93.022,38.155 93.771,38.155C94.522,38.155 95.13,38.765 95.13,39.516Z" style="fill:rgb(3,4,4);fill-rule:nonzero;"/>
        </g>
        <g transform="matrix(1,0,0,1,0,3.12)">
            <path d="M93.771,39.435L93.688,39.516C93.688,39.562 93.725,39.598 93.771,39.598L93.771,39.435ZM93.771,42.32C92.227,42.32 90.97,41.062 90.97,39.516C90.97,37.972 92.227,36.711 93.771,36.711C95.315,36.711 96.572,37.972 96.572,39.516C96.572,41.062 95.315,42.32 93.771,42.32Z" style="fill:rgb(3,4,4);fill-rule:nonzero;"/>
        </g>
        <g transform="matrix(1,0,0,1,0,3.12)">
            <path d="M21.41,5.443C21.41,6.194 20.803,6.804 20.051,6.804C19.302,6.804 18.692,6.194 18.692,5.443C18.692,4.692 19.302,4.082 20.051,4.082C20.803,4.082 21.41,4.692 21.41,5.443Z" style="fill:rgb(3,4,4);fill-rule:nonzero;"/>
        </g>
        <g transform="matrix(1,0,0,1,0,3.12)">
            <path d="M20.052,5.361L19.968,5.443C19.968,5.489 20.006,5.524 20.052,5.524L20.052,5.361ZM20.052,8.246C18.507,8.246 17.252,6.989 17.252,5.443C17.252,3.899 18.507,2.638 20.052,2.638C21.596,2.638 22.853,3.899 22.853,5.443C22.853,6.989 21.596,8.246 20.052,8.246Z" style="fill:rgb(3,4,4);fill-rule:nonzero;"/>
        </g>
        <g transform="matrix(1,0,0,1,0,3.12)">
            <path d="M1.22,47.992L38.818,69.135L73.733,81.451L74.68,38.144L66.403,1.814L29.422,22.132L1.22,47.992ZM74.174,82.539C74.122,82.539 74.07,82.53 74.022,82.514L38.446,69.957L0.229,48.474C0.104,48.402 0.02,48.277 0.002,48.133C-0.013,47.988 0.038,47.844 0.146,47.743L28.898,21.397L66.493,0.728C66.619,0.66 66.766,0.654 66.897,0.714C67.027,0.772 67.121,0.887 67.152,1.025L75.576,38.056L74.624,82.098C74.622,82.242 74.548,82.376 74.431,82.458C74.353,82.512 74.263,82.539 74.174,82.539Z" style="fill:rgb(3,4,4);fill-rule:nonzero;"/>
        </g>
        <g transform="matrix(1,0,0,1,0,3.12)">
            <path d="M20.274,48.134L65.835,63.974L56.835,16.523L20.274,48.134ZM66.131,64.317L65.944,64.25L19.83,48.22L19.978,48.088L56.986,16.094L66.131,64.317Z" style="fill:rgb(3,4,4);fill-rule:nonzero;"/>
        </g>
        <g transform="matrix(1,0,0,1,0,3.12)">
            <path d="M29.803,22.429L38.89,68.676L74.248,38.318L29.803,22.429ZM38.303,70.378L28.607,21.038L76.021,37.992L38.303,70.378Z" style="fill:rgb(3,4,4);fill-rule:nonzero;"/>
        </g>
        <g transform="matrix(1,0,0,1,0,3.12)">
            <path d="M28.809,21.955L19.655,5.665L20.448,5.219L29.6,21.511L28.809,21.955Z" style="fill:rgb(3,4,4);fill-rule:nonzero;"/>
        </g>
        <g transform="matrix(1,0,0,1,0,3.12)">
            <path d="M28.227,86.645L27.464,86.157L38.213,69.284L38.978,69.77L28.227,86.645Z" style="fill:rgb(3,4,4);fill-rule:nonzero;"/>
        </g>
        <g transform="matrix(1,0,0,1,0,3.12)">
            <path d="M93.738,39.968L75.101,38.608L75.165,37.705L93.802,39.063L93.738,39.968Z" style="fill:rgb(3,4,4);fill-rule:nonzero;"/>
        </g>
        <g transform="matrix(1,0,0,1,0,3.12)">
            <path d="M115.052,27.863L122.556,27.855L122.568,40.539L137.14,40.525L137.128,27.841L144.63,27.835L144.66,61.86L137.158,61.864L137.144,47.16L122.572,47.173L122.584,61.878L115.084,61.885L115.052,27.863Z" style="fill:rgb(3,4,4);fill-rule:nonzero;"/>
            <path d="M159.46,47.373L146.647,27.875L155.978,27.866L163.202,40.595L170.839,27.852L179.735,27.848L166.964,47.369L166.976,61.879L159.472,61.886L159.46,47.373Z" style="fill:rgb(3,4,4);fill-rule:nonzero;"/>
            <path d="M189.269,42.274L194.27,42.27C194.948,42.27 195.593,42.204 196.219,42.075C196.844,41.949 197.402,41.728 197.902,41.425C198.398,41.118 198.797,40.704 199.1,40.174C199.407,39.646 199.558,38.984 199.558,38.182C199.558,37.317 199.355,36.617 198.955,36.091C198.554,35.563 198.04,35.153 197.412,34.864C196.791,34.579 196.091,34.396 195.322,34.314C194.553,34.236 193.814,34.197 193.108,34.201L189.261,34.203L189.269,42.274ZM181.752,27.865L194.402,27.854C196.165,27.853 197.836,28.01 199.405,28.331C200.975,28.647 202.345,29.2 203.519,29.982C204.688,30.77 205.619,31.824 206.308,33.153C207,34.479 207.346,36.155 207.348,38.173C207.348,40.16 207.032,41.824 206.392,43.172C205.75,44.517 204.87,45.589 203.75,46.394C202.626,47.197 201.299,47.765 199.757,48.104C198.221,48.442 196.552,48.61 194.756,48.612L189.273,48.618L189.285,61.879L181.784,61.887L181.752,27.865Z" style="fill:rgb(3,4,4);fill-rule:nonzero;"/>
            <path d="M211.86,27.863L234.992,27.843L234.996,34.763L219.368,34.777L219.375,41.121L234.139,41.107L234.143,48.026L219.379,48.038L219.383,54.962L235.881,54.944L235.887,61.866L211.892,61.885L211.86,27.863Z" style="fill:rgb(3,4,4);fill-rule:nonzero;"/>
            <path d="M248.901,41.935L253.328,41.933C254.002,41.932 254.713,41.907 255.467,41.855C256.22,41.808 256.901,41.665 257.51,41.423C258.116,41.182 258.62,40.804 259.022,40.293C259.419,39.78 259.62,39.058 259.62,38.132C259.616,37.265 259.441,36.576 259.091,36.064C258.739,35.552 258.29,35.161 257.743,34.886C257.2,34.615 256.571,34.432 255.869,34.334C255.163,34.241 254.473,34.193 253.801,34.197L248.894,34.199L248.901,41.935ZM241.384,27.863L254.563,27.851C256.297,27.849 257.937,28.017 259.493,28.351C261.047,28.688 262.408,29.248 263.581,30.029C264.751,30.814 265.684,31.87 266.375,33.197C267.063,34.525 267.407,36.185 267.411,38.17C267.415,40.573 266.787,42.617 265.54,44.3C264.291,45.984 262.466,47.05 260.058,47.502L268.729,61.862L259.736,61.872L252.611,48.275L248.905,48.279L248.917,61.878L241.416,61.887L241.384,27.863Z" style="fill:rgb(3,4,4);fill-rule:nonzero;"/>
            <path d="M272.354,27.863L279.858,27.859L279.878,54.962L293.779,54.95L293.787,61.87L272.387,61.885L272.354,27.863Z" style="fill:rgb(3,4,4);fill-rule:nonzero;"/>
            <path d="M297.697,27.863L320.831,27.843L320.837,34.763L305.207,34.777L305.215,41.121L319.977,41.108L319.982,48.028L305.219,48.038L305.225,54.962L321.722,54.944L321.726,61.866L297.731,61.885L297.697,27.863Z" style="fill:rgb(3,4,4);fill-rule:nonzero;"/>
            <path d="M334.752,54.962L338.648,54.958C340.38,54.954 341.988,54.778 343.48,54.423C344.971,54.067 346.26,53.483 347.35,52.665C348.439,51.85 349.296,50.775 349.92,49.442C350.542,48.114 350.854,46.488 350.853,44.565C350.851,42.9 350.54,41.451 349.91,40.218C349.284,38.983 348.443,37.966 347.384,37.17C346.325,36.368 345.08,35.767 343.658,35.37C342.228,34.97 340.729,34.772 339.161,34.772L334.731,34.778L334.752,54.962ZM327.225,27.863L338.479,27.853C341.203,27.849 343.793,28.156 346.248,28.757C348.698,29.365 350.841,30.351 352.67,31.71C354.5,33.069 355.949,34.834 357.026,37.014C358.103,39.194 358.641,41.835 358.645,44.944C358.646,47.701 358.127,50.128 357.087,52.224C356.047,54.324 354.646,56.087 352.887,57.512C351.121,58.943 349.087,60.022 346.78,60.763C344.471,61.5 342.052,61.874 339.52,61.875L327.254,61.885L327.225,27.863Z" style="fill:rgb(3,4,4);fill-rule:nonzero;"/>
            <path d="M394.102,59.232C391.89,60.387 389.582,61.224 387.178,61.74C384.776,62.254 382.324,62.509 379.819,62.515C377.16,62.515 374.709,62.101 372.464,61.272C370.218,60.439 368.277,59.248 366.644,57.692C365.004,56.146 363.727,54.263 362.813,52.055C361.894,49.839 361.438,47.375 361.434,44.65C361.432,41.93 361.886,39.461 362.797,37.251C363.711,35.04 364.982,33.159 366.618,31.601C368.248,30.047 370.19,28.852 372.432,28.017C374.677,27.182 377.126,26.761 379.79,26.761C382.514,26.755 385.023,27.084 387.315,27.736C389.608,28.391 391.625,29.521 393.356,31.123L388.072,36.893C387.044,35.837 385.889,35.036 384.605,34.49C383.322,33.948 381.719,33.675 379.796,33.681C378.191,33.681 376.743,33.956 375.444,34.5C374.147,35.048 373.033,35.805 372.105,36.783C371.175,37.764 370.465,38.925 369.967,40.272C369.471,41.619 369.226,43.077 369.226,44.646C369.228,46.247 369.475,47.712 369.976,49.042C370.476,50.372 371.188,51.521 372.117,52.5C373.048,53.478 374.163,54.235 375.462,54.783C376.759,55.323 378.212,55.595 379.815,55.593C381.453,55.589 382.864,55.405 384.05,55.036C385.233,54.67 386.18,54.292 386.881,53.902L386.879,48.377L380.772,48.385L380.764,41.459L394.085,41.452L394.102,59.232Z" style="fill:rgb(3,4,4);fill-rule:nonzero;"/>
            <path d="M400.471,27.863L423.603,27.841L423.606,34.761L407.979,34.775L407.986,41.119L422.746,41.107L422.754,48.026L407.992,48.038L407.994,54.959L424.491,54.942L424.499,61.864L400.503,61.885L400.471,27.863Z" style="fill:rgb(3,4,4);fill-rule:nonzero;"/>
            <path d="M437.509,41.937L441.936,41.934C442.609,41.934 443.322,41.906 444.075,41.862C444.829,41.81 445.508,41.666 446.118,41.423C446.726,41.185 447.229,40.806 447.632,40.296C448.028,39.782 448.231,39.061 448.229,38.134C448.229,37.268 448.051,36.578 447.702,36.066C447.347,35.556 446.896,35.164 446.353,34.889C445.807,34.618 445.18,34.432 444.476,34.337C443.771,34.241 443.081,34.195 442.408,34.195L437.501,34.201L437.509,41.937ZM429.997,27.863L443.173,27.854C444.904,27.852 446.546,28.015 448.103,28.354C449.656,28.69 451.017,29.25 452.192,30.031C453.362,30.812 454.293,31.87 454.984,33.199C455.676,34.526 456.018,36.187 456.022,38.172C456.024,40.575 455.396,42.619 454.151,44.303C452.904,45.983 451.077,47.05 448.672,47.504L457.341,61.864L448.348,61.87L441.219,48.277L437.517,48.281L437.528,61.879L430.027,61.887L429.997,27.863Z" style="fill:rgb(3,4,4);fill-rule:nonzero;"/>
        </g>
    </g>
</svg>
