<?xml version="1.0" encoding="UTF-8" standalone="no"?>
<!DOCTYPE svg PUBLIC "-//W3C//DTD SVG 1.1//EN" "http://www.w3.org/Graphics/SVG/1.1/DTD/svg11.dtd">
<svg width="100%" height="100%" viewBox="0 0 150 150" version="1.1" xmlns="http://www.w3.org/2000/svg" xmlns:xlink="http://www.w3.org/1999/xlink" xml:space="preserve" xmlns:serif="http://www.serif.com/" style="fill-rule:evenodd;clip-rule:evenodd;stroke-linejoin:round;stroke-miterlimit:1.41421;">
    <g transform="matrix(1,0,0,1,4,12)">
        <g>
            <g>
                <path d="M83.468,43.606C82.893,43.937 82.347,44.304 81.817,44.689C77.063,48.147 74.193,53.689 74.194,59.644L74.194,59.67L74.28,127.671C76.887,124.163 80.306,119.498 84.165,114.071C92.803,101.927 103.621,86.003 112.292,70.983C120.527,56.721 128.413,40.591 134.454,27.497C137.713,20.434 140.429,14.269 142.387,9.733C142.395,9.714 142.404,9.693 142.412,9.674L83.468,43.606Z" style="fill:rgb(102,246,33);fill-rule:nonzero;"/>
                <path d="M139.517,4.568C135.183,4.066 129.456,3.44 122.86,2.814C108.024,1.405 88.825,-0.001 71.481,0C55.013,-0.001 37.1,1.235 22.741,2.55C14.962,3.263 8.239,3.997 3.327,4.57L58.584,36.565L61.978,38.519C62.06,38.566 62.136,38.619 62.217,38.667C65.078,40.316 68.266,41.141 71.459,41.141C73.986,41.141 76.509,40.616 78.871,39.583C79.504,39.306 80.127,39.001 80.734,38.65L139.58,4.575C139.558,4.573 139.539,4.57 139.517,4.568Z" style="fill:rgb(102,246,33);fill-rule:nonzero;"/>
                <path d="M68.325,59.647C68.325,53.119 64.882,47.086 59.284,43.752C59.271,43.744 59.257,43.738 59.243,43.73L55.604,41.623L0,9.426C0.036,9.511 0.07,9.588 0.107,9.674C1.825,13.655 4.133,18.905 6.882,24.92C13.056,38.432 21.443,55.77 30.227,70.983C38.355,85.064 48.371,99.941 56.709,111.751C61.239,118.169 65.266,123.67 68.238,127.67L68.324,59.67L68.325,59.647Z" style="fill:rgb(102,246,33);fill-rule:nonzero;"/>
            </g>
        </g>
    </g>
</svg>
