<svg height="60" viewBox="0 0 120 60" width="120" xmlns="http://www.w3.org/2000/svg"><path d="m18.702339 19.447423h-5.638633v17.466201h-2.290332v-17.466201h-5.6270078v-2.073312h13.5559728zm8.897803 3.514942-6.417579 16.18346c-1.143228 2.887135-2.751498 4.332641-4.82481 4.332641-.581303 0-1.065721-.05813-1.457132-.178266v-2.003556c.480544.162765.922334.244147 1.321494.244147 1.127727 0 1.972553-.670435 2.534479-2.015182l1.116101-2.642988-5.448741-13.920256h2.480223l3.77459 10.734718c.04651.135638.139513.49217.286777 1.061846h.08138c.04651-.217019.135636-.561926.271274-1.034718l3.964487-10.761846zm3.654455 11.936077h-.05425v8.43276h-2.236081v-20.368837h2.236076v2.453097h.05425c1.100599-1.852418 2.704994-2.778626 4.82481-2.778626 1.798162 0 3.201039.623931 4.20863 1.871793 1.007591 1.247863 1.511386 2.922013 1.511386 5.022453 0 2.332961-.565801 4.204755-1.701278 5.607632-1.135478 1.402876-2.689493 2.104314-4.65817 2.104314-1.809788-.0039-3.204914-.78282-4.185378-2.344586zm-.05425-5.627008v1.949301c0 1.154854.375909 2.131442 1.123852 2.937515.747942.806073 1.701278 1.205233 2.856132 1.205233 1.352497 0 2.414343-.519296 3.181663-1.554014.767318-1.034719 1.150978-2.476348 1.150978-4.31714 0-1.554015-.360408-2.770876-1.077347-3.650579-.716939-.879705-1.689652-1.321495-2.914263-1.321495-1.298242 0-2.344587.453416-3.135157 1.356373-.790572.89908-1.185858 2.030683-1.185858 3.394806zm24.155055 1.224611h-9.851139c.03488 1.554014.453416 2.751498 1.251738 3.596324s1.898921 1.267239 3.297923 1.267239c1.569516 0 3.015021-.519297 4.33264-1.554015v2.096565c-1.22461.89133-2.848382 1.336994-4.863563 1.336994-1.972553 0-3.518818-.631681-4.646544-1.898921-1.127728-1.267239-1.689653-3.0499-1.689653-5.347981 0-2.170197.61618-3.941231 1.844666-5.305354 1.232361-1.367999 2.759249-2.05006 4.584539-2.05006s3.235916.589053 4.235757 1.771034c.99984 1.181982 1.499761 2.821255 1.499761 4.917819v1.170356zm-2.290332-1.895046c-.0077-1.290492-.321653-2.294208-.933959-3.011147-.612306-.71694-1.464882-1.077347-2.553856-1.077347-1.054095 0-1.949301.375908-2.685616 1.131602-.736317.755693-1.189734 1.740031-1.364124 2.956892zm4.243508 7.522053v-2.697243c.2829.271274.620056.519297 1.015342.736316.395286.21702.809948.403037 1.247862.5503.437915.147263.875829.267399 1.313744.348782.44179.08138.848701.124011 1.220735.124011 1.286616 0 2.251578-.259649 2.887136-.782821.635557-.523172.953336-1.27499.953336-2.255454 0-.527047-.104635-.984338-.317779-1.375749-.213145-.39141-.503795-.747943-.879705-1.069596-.375908-.321655-.817698-.631682-1.329245-.926209-.511546-.294526-1.061845-.604555-1.650898-.933959-.623932-.344907-1.205234-.693688-1.743907-1.05022-.538675-.352657-1.011467-.744066-1.406752-1.170356-.399162-.426288-.713065-.910706-.941711-1.449381-.228646-.538673-.34103-1.17423-.34103-1.898921 0-.89133.178265-1.662524.534798-2.321334.356532-.658809.82545-1.201358 1.410627-1.627647.581303-.426288 1.243988-.744067 1.988055-.953336s1.503635-.313903 2.27483-.313903c1.763283 0 3.046025.232521 3.852097.693687v2.573232c-1.054095-.798322-2.410467-1.197482-4.065241-1.197482-.457292 0-.914583.05425-1.371874.155014-.457292.104634-.864203.275149-1.220736.511546-.356532.236396-.647183.538673-.871953.914583-.224771.372033-.337156.825448-.337156 1.364123 0 .49992.08526.930083.255774 1.294367.170515.364282.422412.693687.755693.995964.33328.298402.736317.589053 1.21686.871954.476667.2829 1.026967.589053 1.650898.926208.639433.344906 1.247864.709189 1.821415 1.088974.573552.379784 1.077347.802196 1.507511 1.267239.430164.465042.77507.976588 1.026968 1.538513.251897.561927.379784 1.20911.379784 1.933801 0 .961086-.174391 1.778785-.515422 2.445345-.344905.66656-.809948 1.209109-1.395126 1.627646-.585177.418539-1.259488.720816-2.026808.906833-.763444.186017-1.569516.279024-2.418218.279024-.2829 0-.631681-.02325-1.046345-.07363-.414662-.05038-.84095-.124011-1.271114-.217019-.434039-.09688-.84095-.213145-1.228486-.352658-.39141-.151138-.697563-.310027-.933959-.480544zm22.728926.151139c-1.073471.643308-2.344586.968837-3.813344.968837-1.988054 0-3.596325-.647184-4.81706-1.94155-1.220735-1.294367-1.83304-2.972393-1.83304-5.034079 0-2.298082.658809-4.142749 1.976428-5.537874 1.317619-1.395126 3.073152-2.092689 5.274351-2.092689 1.224611 0 2.305833.228645 3.243668.682061v2.290331c-1.034718-.728566-2.143069-1.088973-3.32505-1.088973-1.426129 0-2.596485.511546-3.507192 1.534639-.910707 1.023092-1.367998 2.363963-1.367998 4.026488 0 1.635398.430164 2.925889 1.286616 3.8676.856452.941709 2.011307 1.418377 3.452936 1.418377 1.21686 0 2.360089-.403036 3.43356-1.212985v2.119817zm8.645905-11.052497c-.39141-.298403-.953336-.449541-1.689653-.449541-.953335 0-1.751657.449541-2.39109 1.348621-.639433.899082-.961086 2.123692-.961086 3.677708v7.111266h-2.236079v-13.951259h2.236077v2.87551h.05425c.317779-.980464.802197-1.747782 1.457131-2.294207.654934-.5503 1.3835-.825449 2.193449-.825449.581302 0 1.026967.06201 1.336995.189891zm2.565482-5.801398c-.399161 0-.740192-.135638-1.023092-.406913-.282901-.271274-.422414-.61618-.422414-1.034718s.139513-.763444.422414-1.042469c.2829-.27515.623931-.414662 1.023092-.414662.406911 0 .755693.139512 1.042468.414662.286777.279025.430165.623931.430165 1.042469 0 .399161-.143388.740192-.430165 1.023092-.286775.27515-.635557.418539-1.042468.418539zm1.08897 17.493328h-2.236078v-13.951259h2.236076zm3.604075-2.015182h-.05425v8.43276h-2.23608v-20.368837h2.236077v2.453097h.05425c1.100599-1.852418 2.704995-2.778626 4.824807-2.778626 1.79816 0 3.20104.623931 4.20863 1.871793 1.00759 1.247863 1.51139 2.922013 1.51139 5.022453 0 2.332961-.56581 4.204755-1.70128 5.607632-1.13549 1.402876-2.6895 2.104314-4.65817 2.104314-1.809788-.0039-3.204914-.78282-4.185377-2.344586zm-.05425-5.627008v1.949301c0 1.154854.375909 2.131442 1.123852 2.937515.747942.806073 1.701279 1.205233 2.856133 1.205233 1.352489 0 2.414339-.519296 3.181659-1.554014.76732-1.034719 1.15097-2.476348 1.15097-4.31714 0-1.554015-.3604-2.770876-1.07734-3.650579-.71694-.879705-1.68966-1.321495-2.91427-1.321495-1.298231 0-2.344575.453416-3.135147 1.356373-.790571.89908-1.185857 2.030683-1.185857 3.394806zm18.965944 7.506552c-.52704.290652-1.22073.43404-2.08494.43404-2.44146 0-3.66608-1.364123-3.66608-4.088494v-8.254496h-2.39884v-1.906671h2.39884v-3.406433l2.23608-.720814v4.127247h3.51494v1.906671h-3.51494v7.85921c0 .933959.15889 1.604395.47667 2.003555.31778.399162.84483.60068 1.58114.60068.56193 0 1.05023-.155014 1.45713-.465042z" fill="#007acc" stroke-width=".387535"/></svg>